<?xml version="1.0" encoding="UTF-8" standalone="no"?>
<!-- Created with Inkscape (http://www.inkscape.org/) -->

<svg
   xmlns:dc="http://purl.org/dc/elements/1.1/"
   xmlns:cc="http://creativecommons.org/ns#"
   xmlns:rdf="http://www.w3.org/1999/02/22-rdf-syntax-ns#"
   xmlns:svg="http://www.w3.org/2000/svg"
   xmlns="http://www.w3.org/2000/svg"
   xmlns:sodipodi="http://sodipodi.sourceforge.net/DTD/sodipodi-0.dtd"
   xmlns:inkscape="http://www.inkscape.org/namespaces/inkscape"
   width="174.25972mm"
   height="136.842mm"
   viewBox="0 0 174.25972 136.842"
   version="1.1"
   id="svg8"
   inkscape:version="0.92.3 (2405546, 2018-03-11)"
   sodipodi:docname="Teddy circle.svg">
  <title
     id="title30">Teddy circle</title>
  <defs
     id="defs2" />
  <sodipodi:namedview
     id="base"
     pagecolor="#ffffff"
     bordercolor="#666666"
     borderopacity="1.0"
     inkscape:pageopacity="0.0"
     inkscape:pageshadow="2"
     inkscape:zoom="0.24748737"
     inkscape:cx="939.367"
     inkscape:cy="48.348808"
     inkscape:document-units="mm"
     inkscape:current-layer="layer1"
     showgrid="false"
     fit-margin-top="0"
     fit-margin-left="0"
     fit-margin-right="0"
     fit-margin-bottom="0"
     inkscape:window-width="1920"
     inkscape:window-height="1017"
     inkscape:window-x="3832"
     inkscape:window-y="-8"
     inkscape:window-maximized="1" />
  <metadata
     id="metadata5">
    <rdf:RDF>
      <cc:Work
         rdf:about="">
        <dc:format>image/svg+xml</dc:format>
        <dc:type
           rdf:resource="http://purl.org/dc/dcmitype/StillImage" />
        <dc:title>Teddy circle</dc:title>
        <cc:license
           rdf:resource="http://creativecommons.org/publicdomain/zero/1.0/" />
      </cc:Work>
      <cc:License
         rdf:about="http://creativecommons.org/publicdomain/zero/1.0/">
        <cc:permits
           rdf:resource="http://creativecommons.org/ns#Reproduction" />
        <cc:permits
           rdf:resource="http://creativecommons.org/ns#Distribution" />
        <cc:permits
           rdf:resource="http://creativecommons.org/ns#DerivativeWorks" />
      </cc:License>
    </rdf:RDF>
  </metadata>
  <g
     inkscape:label="Layer 1"
     inkscape:groupmode="layer"
     id="layer1"
     transform="translate(1.0690781,-1.9344417)">
    <rect
       style="opacity:1;fill:#000000;fill-opacity:1;stroke:none;stroke-width:0.26458332;stroke-linejoin:miter;stroke-miterlimit:4;stroke-dasharray:none;stroke-dashoffset:0;stroke-opacity:1;paint-order:markers fill stroke"
       id="rect26"
       width="174.25972"
       height="136.842"
       x="-1.0690781"
       y="1.9344417" />
    <path
       style="fill:#ffffff;stroke-width:1"
       d="m 81.468752,10.92973 c -1.188831,-0.0034 -2.265354,0.01681 -2.921267,0.0646 -3.107169,0.226378 -6.954128,0.763112 -8.956561,1.250053 -2.661759,0.64728 -6.39985,1.861389 -8.644432,2.807581 -0.747109,0.314945 -1.487935,0.609717 -1.646412,0.655257 -0.341808,0.09822 -3.382756,1.608786 -4.370793,2.170927 -5.3107,3.021523 -10.018847,6.788447 -13.832747,11.068577 -0.820655,0.92098 -2.814907,3.367063 -3.283521,4.027143 -0.203759,0.287002 -0.575736,0.804103 -0.826305,1.149284 -1.313378,1.8093 -3.159781,4.949642 -4.239535,7.210412 -1.001934,2.09782 -1.070485,2.255506 -1.790589,4.119647 -1.46999,3.805388 -2.396257,7.239889 -3.097485,11.48457 -0.248602,1.504839 -0.403889,3.034014 -0.580842,5.721615 -0.199686,3.03281 -0.219461,3.811307 -0.139009,5.433776 0.241228,4.864709 0.91582,8.70344 2.43034,13.830679 0.133753,0.452792 0.33941,1.15326 0.457338,1.557012 0.11793,0.403741 0.246674,0.774652 0.285771,0.823722 0.03909,0.049 0.134427,0.311229 0.211873,0.582911 0.07745,0.271669 0.209442,0.623393 0.293521,0.781862 0.08408,0.158481 0.45798,0.973601 0.830958,1.811261 0.714875,1.605529 2.063324,4.323191 2.350244,4.736661 0.0933,0.134451 0.45839,0.744193 0.811321,1.355474 0.764339,1.323829 2.224595,3.506295 3.271633,4.889105 1.680496,2.219421 3.057552,3.774561 5.258078,5.939691 1.990053,1.95802 3.004656,2.83653 5.168159,4.47467 4.923153,3.72761 9.622076,6.26295 15.215611,8.20931 7.073344,2.46131 14.251921,3.40344 22.167638,2.90939 1.292722,-0.0807 3.690032,-0.37486 3.993554,-0.48989 0.178377,-0.0676 0.42835,-0.79914 0.311092,-0.91054 -0.03574,-0.0339 -0.639172,0.008 -1.341003,0.092 -3.502827,0.42231 -8.620937,0.52253 -10.990543,0.21549 -0.543354,-0.0704 -1.450938,-0.16925 -2.016932,-0.21962 -3.950282,-0.35174 -8.043489,-1.28885 -12.390459,-2.83704 -0.58857,-0.20963 -1.366279,-0.50629 -1.728575,-0.6594 -0.3623,-0.15309 -1.01205,-0.42695 -1.44384,-0.60823 -0.828098,-0.34767 -2.340332,-1.04125 -2.549199,-1.16944 -0.06792,-0.0417 -0.419627,-0.22921 -0.781865,-0.41651 -3.121533,-1.61386 -6.70207,-3.97813 -9.261967,-6.11642 -2.691291,-2.24806 -5.396381,-4.96051 -7.355104,-7.374745 -0.275522,-0.339598 -0.52432,-0.636222 -0.55294,-0.658873 C 39.534713,98.644542 36.970715,94.95098 35.983674,93.3671 34.482449,90.958104 32.440297,86.741138 31.677477,84.475628 31.479275,83.886998 31.181142,83.03499 31.015503,82.582203 30.316444,80.671234 29.692364,78.149776 29.181506,75.172838 28.514785,71.287617 28.370825,69.94274 28.291638,66.8581 28.04198,57.133319 30.55182,47.128913 35.324282,38.825703 c 0.803047,-1.397151 2.279978,-3.700208 2.88613,-4.501018 0.211614,-0.279561 0.716532,-0.962704 1.122413,-1.518253 2.061771,-2.822061 5.083482,-6.000025 8.10338,-8.522993 1.95547,-1.633694 4.880613,-3.725889 6.61665,-4.732012 0.327599,-0.18986 0.929354,-0.538835 1.336871,-0.775664 2.605601,-1.514223 6.349489,-3.16667 9.467638,-4.179072 5.41129,-1.756945 10.175071,-2.564421 15.724105,-2.664955 1.995604,-0.03613 2.884281,-0.01703 4.075203,0.08837 0.837671,0.07416 1.967605,0.172744 2.510956,0.219107 5.305203,0.452694 10.664788,1.830874 16.051222,4.127397 5.20078,2.217364 9.9322,5.24688 14.45079,9.252667 1.67905,1.488519 4.2735,4.179165 5.26893,5.464265 0.20375,0.26304 0.76086,0.9609 1.23817,1.55081 2.63956,3.262238 4.93376,7.125695 6.92051,11.654586 0.65004,1.481759 0.69377,1.53479 1.27279,1.53479 0.20956,0 0.28267,-0.03582 0.28267,-0.137978 0,-0.0758 -0.1822,-0.566748 -0.40515,-1.090888 -0.22293,-0.524131 -0.52712,-1.267732 -0.67592,-1.652613 -0.30023,-0.7765 -1.61515,-3.397983 -2.31201,-4.610055 -3.00235,-5.22206 -7.15004,-10.245405 -11.63133,-14.085443 -2.44729,-2.097096 -4.10484,-3.312073 -6.91534,-5.069459 -1.99904,-1.249992 -5.04747,-2.888877 -6.54482,-3.518649 -2.13331,-0.897236 -2.78761,-1.156959 -4.44572,-1.765784 C 96.38341,12.666831 91.105435,11.52328 86.920616,11.119383 85.743427,11.005766 83.45014,10.935374 81.468752,10.92973 Z m 33.392278,40.81663 c -0.091,0.01519 -0.22833,0.110397 -0.3328,0.251664 -0.18714,0.253121 -0.36117,0.317931 -0.41547,0.15503 -0.0168,-0.0505 -0.12159,-0.106844 -0.23307,-0.125574 -0.79978,-0.134401 -0.78972,-0.135276 -0.9648,0.08733 -0.0927,0.117829 -0.23158,0.497093 -0.3085,0.842843 -0.0942,0.423339 -0.20449,0.693343 -0.33797,0.826823 -0.2771,0.277098 -0.3855,0.171204 -0.22789,-0.222726 0.071,-0.177599 0.11314,-0.370123 0.094,-0.427363 -0.0465,-0.139481 -0.28837,0.241294 -0.32401,0.510045 -0.0156,0.11798 -0.14024,0.285464 -0.29197,0.392223 -0.14557,0.102442 -0.35856,0.346226 -0.47336,0.542087 -0.17566,0.29977 -0.20851,0.459369 -0.20877,1.007689 0,0.358262 -0.055,0.984655 -0.12196,1.392164 -0.067,0.407521 -0.12367,1.018984 -0.12557,1.358574 -0.001,0.339601 -0.0386,0.769713 -0.0816,0.956014 -0.043,0.18629 -0.13538,0.827508 -0.20516,1.42472 -0.10022,0.857599 -0.18748,1.236517 -0.41651,1.801956 -0.24438,0.60331 -0.29196,0.823221 -0.30127,1.398881 -0.006,0.375711 -0.0416,0.70187 -0.0791,0.725022 -0.13796,0.0853 -0.0628,0.20666 0.0966,0.156061 0.13365,-0.0425 0.16433,-0.0148 0.16433,0.146762 0,0.10945 0.10621,0.345641 0.23616,0.525031 0.30493,0.420942 0.57504,1.034675 0.64286,1.460895 0.0295,0.18533 0.11757,0.479647 0.19533,0.653706 0.1541,0.34495 0.12734,0.629935 -0.0589,0.629935 -0.44067,0 -0.90953,0.616535 -0.8108,1.066086 0.0588,0.267869 0.88069,0.849723 1.33945,0.948261 0.42472,0.0912 0.55843,0.523807 0.30903,1.002007 -0.23848,0.457239 -0.13346,1.236699 0.22169,1.64176 0.10271,0.11715 0.17646,0.403336 0.23254,0.905889 0.045,0.403918 0.11822,1.051327 0.16278,1.439187 0.0894,0.778129 0.5949,2.89995 0.77722,3.26285 0.0637,0.126849 0.16159,0.397237 0.21756,0.600998 0.0853,0.310629 0.47788,1.179137 0.74465,1.646926 0.0387,0.0679 0.20421,0.382741 0.36794,0.699701 0.16373,0.316958 0.38091,0.687374 0.48266,0.823203 0.10175,0.13584 0.21285,0.335336 0.24701,0.443384 0.0341,0.10805 0.18525,0.357293 0.33538,0.553974 0.15013,0.196667 0.29652,0.432527 0.32556,0.523997 0.029,0.0915 0.0875,0.166399 0.12971,0.166399 0.13865,0 0.08,-0.376971 -0.0863,-0.555522 -0.14651,-0.15725 -0.15226,-0.206388 -0.0589,-0.48886 0.11967,-0.361995 0.11741,-1.698146 -0.006,-4.183206 -0.0452,-0.905589 -0.0715,-1.850575 -0.0589,-2.099614 0.0126,-0.249039 -0.0439,-0.767503 -0.12506,-1.152385 -0.0811,-0.384868 -0.17185,-0.922054 -0.20206,-1.193725 -0.0302,-0.27169 -0.0969,-0.61458 -0.14831,-0.761709 -0.1053,-0.30171 -0.054,-0.383093 0.29146,-0.464572 0.27375,-0.0646 0.37972,0.111721 0.23358,0.388089 -0.0706,0.133521 -0.0736,0.507415 -0.0109,1.455726 0.0847,1.283349 0.11558,1.487647 0.36794,2.469616 0.21285,0.82813 0.19176,0.800208 0.41961,0.55449 0.15253,-0.164513 0.20206,-0.309266 0.20206,-0.588595 0,-0.26684 0.0718,-0.492212 0.25683,-0.806154 0.14134,-0.23972 0.25251,-0.444981 0.24701,-0.456303 -0.045,-0.0926 0.0119,-0.185517 0.11369,-0.185517 0.0679,0 0.12351,0.05563 0.12351,0.123507 0,0.0679 0.0378,0.123505 0.0842,0.123505 0.0464,0 0.11974,0.09297 0.16278,0.20619 0.0431,0.113199 0.12025,0.205671 0.17157,0.205671 0.0582,0 0.0742,0.07669 0.0424,0.203607 -0.0396,0.157549 -0.0239,0.193056 0.0698,0.157094 0.0813,-0.0312 0.13874,0.02367 0.17467,0.166915 0.0294,0.117322 0.0956,0.217517 0.14728,0.222726 0.0517,0.005 0.14934,0.01457 0.21652,0.02067 0.14229,0.0129 0.22332,0.299207 0.0847,0.299207 -0.0513,0 -0.0704,0.03686 -0.0424,0.08216 0.028,0.0453 0.10623,0.08217 0.17415,0.08217 0.0679,0 0.10085,-0.03686 0.0729,-0.08217 -0.0887,-0.143569 0.0251,-0.08919 0.25011,0.119372 0.1381,0.12801 0.19389,0.24049 0.15297,0.308509 -0.0519,0.0863 -0.0398,0.08737 0.062,0.0052 0.0694,-0.0562 0.15055,-0.07786 0.18035,-0.04806 0.0298,0.0298 0.0543,-0.09771 0.0543,-0.283705 0,-0.185989 0.0396,-0.36285 0.0879,-0.39274 0.0484,-0.0299 0.0683,-0.106159 0.0439,-0.1695 -0.0243,-0.0633 0.002,-0.115236 0.0584,-0.115236 0.24714,0 1.04033,-1.157949 1.04386,-1.52394 7.7e-4,-0.0457 0.10286,-0.192603 0.22738,-0.326593 0.256,-0.275471 0.43201,-0.582824 0.43201,-0.753444 0,-0.116318 0.0255,-0.178083 0.2744,-0.674894 0.0756,-0.150831 0.13695,-0.358454 0.13695,-0.460954 0,-0.102478 0.0931,-0.293727 0.20619,-0.425296 0.20972,-0.24387 0.27383,-0.57345 0.12144,-0.62425 -0.0502,-0.0168 -0.0169,-0.167894 0.0822,-0.373105 0.17148,-0.35491 0.21402,-0.60048 0.10439,-0.60048 -0.098,0 -0.53471,0.553305 -0.76223,0.965316 -0.23031,0.417089 -0.57516,0.714026 -0.57516,0.495575 0,-0.0679 0.0559,-0.169354 0.12402,-0.225824 0.10617,-0.0881 0.0829,-0.12487 -0.16433,-0.25735 -0.15844,-0.0849 -0.35607,-0.154511 -0.43925,-0.154511 -0.23431,0 -0.26523,-0.08214 -0.12919,-0.345199 0.10204,-0.197332 0.14703,-0.224158 0.2434,-0.144177 0.0841,0.0697 0.11834,0.07108 0.11834,0.0057 0,-0.0508 0.0542,-0.09199 0.12041,-0.09198 0.0825,0 0.11469,-0.07761 0.10283,-0.247015 -0.0143,-0.2046 -0.0526,-0.24661 -0.22324,-0.24443 -0.1132,0.002 -0.35373,0.07425 -0.53485,0.161748 -0.18111,0.0875 -0.37614,0.160723 -0.43357,0.162263 -0.10924,0.003 -0.93578,0.410422 -1.00717,0.496613 -0.11162,0.134789 -0.63816,0.476345 -0.79117,0.513146 -0.0954,0.0229 -0.23756,0.0051 -0.31626,-0.03824 -0.12869,-0.072 -0.11545,-0.10955 0.1323,-0.370519 0.1515,-0.159592 0.23803,-0.304366 0.19275,-0.321945 -0.21426,-0.0832 -0.28228,-0.179144 -0.31575,-0.443384 -0.0849,-0.67029 -0.13872,-0.775332 -0.4687,-0.916223 -0.27828,-0.118811 -0.33214,-0.120716 -0.41858,-0.01654 -0.0546,0.0658 -0.14823,0.100515 -0.20825,0.07751 -0.26375,-0.101211 -1.017,0.657447 -1.017,1.024226 0,0.0941 -0.10538,0.204747 -0.26768,0.281635 -0.27609,0.130802 -0.50627,0.121685 -0.79168,-0.031 -0.0905,-0.0485 -0.23598,-0.08785 -0.32298,-0.08785 -0.13771,0 -0.16429,-0.07941 -0.20464,-0.612884 -0.0255,-0.337039 -0.0794,-0.672129 -0.11989,-0.744656 -0.0406,-0.0725 -0.0482,-0.324493 -0.0165,-0.560173 0.0317,-0.235681 0.0251,-0.463926 -0.015,-0.506947 -0.11191,-0.12006 -0.0874,-0.304552 0.063,-0.470771 0.24894,-0.275082 0.38546,-0.180043 0.6873,0.479557 0.30073,0.65717 0.6781,1.147086 0.81752,1.060916 0.0448,-0.0277 0.10649,-0.18783 0.13694,-0.35605 0.067,-0.370271 0.24126,-0.735652 0.46922,-0.984953 0.15207,-0.16631 0.15474,-0.185518 0.0258,-0.185518 -0.10188,0 -0.13616,-0.05357 -0.1173,-0.185002 0.0197,-0.13774 0.0748,-0.180303 0.21445,-0.165365 0.23359,0.025 0.34728,-0.214 0.15348,-0.322461 -0.19512,-0.109191 -0.16859,-0.253984 0.0904,-0.496094 0.33296,-0.3112 0.91786,-0.376552 1.34979,-0.15141 0.38865,0.202589 0.79677,0.167717 1.17615,-0.100253 0.2627,-0.18555 1.57645,-0.352333 2.08359,-0.264584 0.19903,0.0344 0.31321,0.0036 0.44701,-0.121441 0.37206,-0.346628 1.05626,-0.316857 1.05626,0.04599 0,0.39814 0.22221,0.675145 0.66766,0.831474 0.24167,0.0848 0.51943,0.260395 0.65526,0.414446 0.27067,0.30698 0.32349,0.326676 0.32349,0.118856 0,-0.226711 -0.2913,-0.491545 -0.66352,-0.603065 -0.49642,-0.14873 -1.01035,-0.85081 -0.5917,-0.80822 0.28112,0.0286 0.3469,-0.0066 0.47698,-0.258381 0.1197,-0.231481 0.11995,-0.267769 0.002,-0.39791 -0.30732,-0.339579 -0.1078,-0.538601 0.61133,-0.60978 0.24905,-0.0246 0.61945,-0.06772 0.82321,-0.09612 0.24492,-0.0341 0.32866,-0.02588 0.24702,0.02532 -0.0679,0.0425 -0.29503,0.102021 -0.50489,0.132292 -0.2151,0.031 -0.44447,0.124359 -0.52554,0.213939 -0.15644,0.172871 -0.17507,0.120809 0.25786,0.71882 0.10673,0.147439 0.1137,0.209974 0.0341,0.305925 -0.0804,0.0969 -0.065,0.169749 0.078,0.37052 0.18986,0.266628 0.16543,0.579292 -0.045,0.579292 -0.1328,0 -0.15943,0.254473 -0.0393,0.374655 0.0956,0.0956 0.34007,1.111808 0.28783,1.196308 -0.0205,0.0332 -0.0704,0.276453 -0.1111,0.541052 -0.238,1.544942 -0.368,2.047012 -0.59893,2.315623 -0.12788,0.148719 -0.23254,0.301455 -0.23254,0.338997 0,0.0376 -0.14392,0.167955 -0.31988,0.289904 -0.33042,0.228981 -0.43083,0.459346 -0.54932,1.264004 -0.0342,0.232022 -0.16113,0.490959 -0.37311,0.759127 -0.35376,0.447551 -0.39013,0.611577 -0.18551,0.837676 0.17756,0.196191 0.52894,0.191138 0.95343,-0.01395 0.18744,-0.0906 0.46002,-0.164849 0.60616,-0.164849 0.23161,0 0.31337,0.06615 0.63562,0.514697 0.71631,0.997 1.14727,1.296561 1.86449,1.296561 0.47102,0 0.71091,0.202941 0.62838,0.531752 -0.0289,0.11502 -0.0889,0.209288 -0.13332,0.209288 -0.11724,0 -0.0992,0.225253 0.0222,0.275952 0.0685,0.0287 0.0263,0.108657 -0.12609,0.238747 l -0.22944,0.195337 0.12402,0.488857 c 0.33918,1.339361 0.38525,1.433841 0.81235,1.65468 0.19882,0.10282 0.25578,0.105744 0.31058,0.01705 0.0527,-0.0852 0.10806,-0.07117 0.25683,0.06563 0.23934,0.220019 0.94517,0.261487 0.9865,0.05788 0.0223,-0.110209 0.0552,-0.10568 0.23203,0.03204 0.1132,0.0881 0.24786,0.145552 0.29921,0.127643 0.0514,-0.0179 0.22747,0.124388 0.3917,0.316259 0.34923,0.407979 0.57752,0.498327 0.45682,0.180866 -0.0824,-0.216738 -0.014,-0.20784 0.26924,0.03514 0.17872,0.15331 0.39429,0.07465 0.39429,-0.143661 0,-0.092 0.0369,-0.166913 0.0822,-0.166913 0.10392,0 0.41135,0.303615 0.41135,0.406176 0,0.0423 0.10049,0.08854 0.22324,0.102835 0.15966,0.0187 0.23704,0.08425 0.2713,0.231511 0.0264,0.113201 0.1421,0.25142 0.25735,0.306959 0.22624,0.10904 0.49173,0.619818 0.46095,0.886766 -0.0133,0.11638 0.0233,0.15766 0.12506,0.14056 0.22798,-0.0383 0.16859,0.174419 -0.12971,0.46354 l -0.27388,0.265615 -0.41393,-0.414443 c -0.34037,-0.340371 -0.46561,-0.41393 -0.70383,-0.41393 -0.1594,0 -0.33637,-0.05562 -0.39275,-0.123505 -0.0563,-0.0679 -0.15196,-0.123508 -0.21238,-0.123508 -0.0604,0 -0.21307,-0.132299 -0.33952,-0.294039 -0.32455,-0.415116 -0.76998,-0.622147 -1.41593,-0.658358 -0.29854,-0.0168 -0.70989,-0.05442 -0.91364,-0.08372 -0.62398,-0.0895 -2.14061,-0.100809 -2.7957,-0.02067 -0.91851,0.112319 -0.99115,0.135443 -0.99115,0.312643 0,0.087 -0.0346,0.179461 -0.077,0.205671 -0.13526,0.0836 -0.0618,0.374137 0.0946,0.374139 0.0809,0 0.14728,0.03643 0.14728,0.08113 0,0.0447 0.0831,0.08025 0.185,0.07855 0.10188,-0.002 0.48166,0.01846 0.84388,0.04496 0.36223,0.0266 0.7295,0.04859 0.81597,0.04909 0.0864,7.7e-4 0.23451,0.04402 0.32917,0.09612 0.25186,0.138771 0.37289,0.159988 0.83768,0.147278 0.28871,-0.008 0.45209,0.02834 0.52503,0.116271 0.0582,0.0701 0.17434,0.127124 0.25839,0.127124 0.13151,0 0.14015,0.02797 0.0625,0.198438 -0.10689,0.234622 -0.4237,0.317087 -0.62631,0.163298 -0.2701,-0.205031 -0.4893,-0.125913 -0.44029,0.158647 0.006,0.037 -0.054,0.05597 -0.13436,0.04237 -0.0803,-0.0136 -0.23737,0.03941 -0.34933,0.117822 -0.11196,0.0785 -0.26187,0.142626 -0.33331,0.142626 -0.0714,0 -0.1746,0.04482 -0.22893,0.09922 -0.0768,0.0768 -0.12057,0.0768 -0.19741,0 -0.12783,-0.127839 -0.23022,-0.126402 -0.23202,0.0036 -7.7e-4,0.0566 -0.0932,0.1905 -0.20567,0.29714 -0.11242,0.10663 -0.20464,0.226637 -0.20464,0.267169 0,0.0405 -0.0556,0.07389 -0.12351,0.07389 -0.0889,0 -0.12631,0.09807 -0.13332,0.349851 -0.005,0.19245 -0.002,0.387252 0.009,0.43253 0.0102,0.0453 0.0384,0.22625 0.063,0.402561 0.0358,0.256198 0.0914,0.338394 0.27647,0.408244 0.12737,0.0481 0.27469,0.190762 0.32711,0.317294 0.0524,0.126529 0.12765,0.229959 0.16744,0.229959 0.0398,0 0.0723,0.05562 0.0723,0.123505 0,0.0679 0.0413,0.123508 0.0915,0.123508 0.0572,0 0.0709,0.07992 0.0372,0.213939 -0.0428,0.170392 -0.003,0.262586 0.19637,0.452686 0.13742,0.131321 0.33334,0.242277 0.43563,0.246497 0.61184,0.0252 0.91428,0.07042 0.99167,0.147796 0.0575,0.0575 0.12113,0.06027 0.18449,0.0083 0.0532,-0.0441 0.18541,-0.08527 0.29404,-0.09147 l -5.2e-4,-0.001 c 0.10862,-0.006 0.26234,0.01601 0.34158,0.04961 0.0872,0.037 0.14418,0.02513 0.14418,-0.02997 0,-0.13961 0.31149,-0.10817 0.39429,0.03979 0.066,0.117938 0.0876,0.116393 0.21911,-0.01499 0.0957,-0.0957 0.29098,-0.151046 0.56895,-0.161745 0.23273,-0.009 0.52726,-0.05776 0.65474,-0.108522 0.12745,-0.0508 0.24776,-0.0925 0.26717,-0.0925 0.0193,0 0.385,-0.170082 0.81287,-0.378272 0.55193,-0.268539 0.90312,-0.505986 1.20768,-0.816486 0.50008,-0.509841 1.00037,-0.70808 1.36581,-0.54157 0.27102,0.123492 0.40671,0.01161 0.27801,-0.228925 -0.0691,-0.128961 -0.0663,-0.212257 0.0109,-0.335897 0.0869,-0.139131 0.0787,-0.181911 -0.0527,-0.278021 -0.0854,-0.0625 -0.13441,-0.16527 -0.10852,-0.22841 0.0258,-0.0632 0.10507,-0.249941 0.1757,-0.414962 0.1257,-0.293618 0.12344,-0.30507 -0.0956,-0.527097 l -0.22376,-0.226862 0.52658,0.05374 c 0.56309,0.0572 0.75896,-0.01602 0.69505,-0.260451 -0.0274,-0.104738 0.0412,-0.172196 0.25528,-0.249597 0.35668,-0.128969 0.41076,-0.369988 0.0667,-0.297138 -0.18871,0.0399 -0.20227,0.03248 -0.0822,-0.04393 0.0792,-0.0504 0.14417,-0.149717 0.14417,-0.220657 0,-0.084 0.0519,-0.115308 0.14883,-0.08992 0.27739,0.0726 0.7158,-0.420055 0.91519,-1.028358 0.0719,-0.219411 0.14866,-0.30851 0.2651,-0.30851 0.12957,0 0.15193,-0.03682 0.10801,-0.175183 -0.0345,-0.108389 -0.0238,-0.155623 0.0274,-0.124024 0.0454,0.028 0.10352,-0.0041 0.12919,-0.0708 0.0264,-0.0691 0.10117,-0.100502 0.17312,-0.07286 0.17906,0.0688 0.17059,-0.371467 -0.01,-0.503328 -0.12621,-0.0923 -0.12499,-0.116078 0.0202,-0.315227 0.0864,-0.118459 0.22403,-0.216654 0.30592,-0.218075 0.0819,-0.002 0.12611,-0.03945 0.0982,-0.08475 -0.028,-0.0453 -0.0111,-0.08217 0.0367,-0.08217 0.0479,0 0.0871,-0.102338 0.0873,-0.226859 0,-0.124529 0.0391,-0.365051 0.0863,-0.53485 0.0699,-0.251711 0.12389,-0.308509 0.29197,-0.308509 0.20421,0 0.20559,-0.005 0.15813,-0.551387 -0.0453,-0.521321 -0.1239,-0.813728 -0.12661,-0.471289 0,0.0868 -0.0393,0.213717 -0.0858,0.281636 -0.0751,0.10976 -0.0819,0.10976 -0.0636,0 0.0112,-0.0679 -0.008,-0.23336 -0.0439,-0.367419 -0.0496,-0.18837 -0.0311,-0.267819 0.0811,-0.349851 0.0798,-0.0584 0.11027,-0.106785 0.0677,-0.107487 -0.0426,-7.59e-4 -0.0282,-0.0325 0.032,-0.07079 0.17848,-0.113131 -0.0454,-0.769623 -0.24133,-0.707451 -0.0952,0.0302 -0.17792,-0.01227 -0.23668,-0.121957 -0.0808,-0.151 -0.0663,-0.168809 0.13901,-0.17105 0.19553,-0.002 0.20814,-0.0148 0.0853,-0.0863 -0.20035,-0.116699 -0.19185,-0.58271 0.0129,-0.710549 0.30303,-0.18923 0.33033,-1.478904 0.0289,-1.363226 -0.0859,0.033 -0.11017,0.01732 -0.0713,-0.04547 0.039,-0.0632 0.014,-0.07834 -0.0744,-0.04444 -0.22163,0.0851 -0.81832,-0.256032 -0.72037,-0.411861 0.0323,-0.0514 0.0645,-0.253669 0.0718,-0.449069 0.01,-0.2619 0.0808,-0.439126 0.26975,-0.674378 0.14105,-0.175498 0.25632,-0.39315 0.25632,-0.48369 0,-0.0905 0.032,-0.184346 0.0708,-0.208256 0.0636,-0.0393 0.16677,-0.683837 0.21239,-1.324467 0.035,-0.49171 0.0481,-0.53485 0.16072,-0.53485 0.0629,0 0.10986,-0.04676 0.10438,-0.103354 -0.0308,-0.31664 0.15199,-1.118016 0.32608,-1.429888 0.16255,-0.29115 0.17737,-0.360701 0.0755,-0.360701 -0.18292,0 -0.15528,-0.103802 0.0739,-0.275953 0.29201,-0.219289 0.18696,-0.405058 -0.20774,-0.367419 -0.27248,0.026 -0.31992,0.0048 -0.36225,-0.16433 -0.0533,-0.212349 0.019,-0.531987 0.108,-0.478007 0.0308,0.0186 0.0606,-0.135474 0.0667,-0.342614 0.008,-0.25123 0.0583,-0.411144 0.15245,-0.480076 0.0777,-0.0569 0.11832,-0.140358 0.0904,-0.185518 -0.028,-0.0452 -0.009,-0.107579 0.0419,-0.139009 0.0652,-0.0402 0.0664,-0.07362 0.004,-0.112138 -0.10144,-0.0627 -0.12268,-0.422868 -0.047,-0.802019 0.0394,-0.19753 0.004,-0.330377 -0.14831,-0.554487 -0.1632,-0.240181 -0.19527,-0.376875 -0.17364,-0.736907 0.0212,-0.353528 -0.005,-0.470326 -0.13177,-0.584975 -0.13466,-0.121891 -0.14412,-0.175265 -0.062,-0.355534 0.0753,-0.165142 0.0739,-0.218985 -0.005,-0.245464 -0.122,-0.0407 -0.13601,-0.31926 -0.0196,-0.391189 0.16342,-0.101002 0.0764,-0.34498 -0.21446,-0.602549 -0.21595,-0.191191 -0.28017,-0.301747 -0.23667,-0.406175 0.15635,-0.375121 0.21694,-0.852541 0.12247,-0.966351 -0.11211,-0.135099 -0.0444,-0.28887 0.12764,-0.28887 0.14211,0 0.16611,-0.495858 0.0305,-0.631486 -0.0486,-0.0486 -0.10013,-0.193466 -0.1142,-0.321945 -0.014,-0.12849 -0.0668,-0.247764 -0.11731,-0.264583 -0.0505,-0.0168 -0.0915,-0.197729 -0.0915,-0.402559 0,-0.28258 -0.0277,-0.36222 -0.11368,-0.329181 -0.0624,0.0239 -0.15488,0.0018 -0.20568,-0.04909 -0.0682,-0.0683 -0.0933,-0.06081 -0.0951,0.02739 -0.003,0.101201 -0.013,0.100436 -0.0718,-0.0041 -0.0844,-0.150431 -0.20693,-0.743227 -0.18294,-0.885216 0.01,-0.0566 -0.0208,-0.102838 -0.0682,-0.102838 -0.0472,0 -0.0858,-0.05242 -0.0858,-0.116271 0,-0.15779 -0.69601,-0.485191 -0.89607,-0.42168 -0.0876,0.0278 -0.18001,0.105211 -0.20568,0.172082 -0.15037,0.39193 -1.14465,0.281879 -1.49861,-0.16588 -0.10875,-0.13757 -0.26248,-0.33319 -0.3421,-0.4346 -0.0797,-0.101409 -0.17276,-0.184523 -0.20671,-0.185002 -0.13612,-0.002 -0.0495,0.264949 0.14418,0.444418 0.14319,0.132689 0.20502,0.275868 0.20309,0.469739 -0.003,0.27677 -0.004,0.277371 -0.14779,0.105421 -0.0796,-0.0952 -0.2266,-0.217266 -0.3266,-0.270786 -0.1,-0.0535 -0.18215,-0.141877 -0.18242,-0.196887 0,-0.055 -0.18523,-0.30082 -0.41134,-0.546221 -0.22615,-0.245388 -0.41134,-0.470064 -0.41134,-0.499192 0,-0.0291 -0.11632,-0.162073 -0.25839,-0.295074 l -0.25786,-0.241845 0.15348,0.247012 c 0.0844,0.135832 0.19013,0.272876 0.23512,0.304374 0.1942,0.13589 -0.0243,0.122724 -0.32556,-0.01964 -0.18088,-0.0855 -0.37647,-0.156591 -0.4346,-0.15813 -0.0581,-0.002 -0.18193,-0.132459 -0.27543,-0.290939 -0.0935,-0.158469 -0.23116,-0.288719 -0.30593,-0.289388 -0.13908,-0.002 -0.27356,-0.07011 -0.75034,-0.383439 -0.14943,-0.0982 -0.31594,-0.161309 -0.37,-0.14056 -0.15731,0.0604 -0.79594,-0.249889 -1.18443,-0.575159 -0.2618,-0.219179 -0.43511,-0.299207 -0.64595,-0.299207 -0.21883,0 -0.29853,-0.03971 -0.33125,-0.164846 -0.0537,-0.205431 -0.27078,-0.217874 -0.27078,-0.0155 0,0.082 -0.0776,0.232823 -0.1726,0.334865 -0.16428,0.176329 -0.18047,0.178525 -0.32918,0.04392 -0.0861,-0.0779 -0.15658,-0.102063 -0.15658,-0.05374 0,0.0607 -0.0787,0.05793 -0.25425,-0.0083 -0.22807,-0.0859 -0.25021,-0.123346 -0.21135,-0.363286 0.0343,-0.211659 0.0143,-0.268772 -0.0956,-0.274402 -0.0764,-0.004 -0.31506,-0.01811 -0.53071,-0.03101 -0.34845,-0.021 -0.39761,-0.0028 -0.43925,0.163298 -0.0258,0.10268 0.0143,0.403543 0.0889,0.668695 0.0746,0.265139 0.13601,0.537726 0.13643,0.605647 0.005,0.693299 -0.34924,1.593422 -0.7922,2.01693 -0.35046,0.335092 -0.89293,0.699701 -1.04128,0.699701 -0.0451,0 -0.28991,0.09501 -0.54416,0.211354 -0.55628,0.254461 -1.20025,0.349491 -1.37665,0.203089 -0.20891,-0.173379 -1.65336,0.0198 -1.99368,0.266652 -0.0535,0.0388 -0.30273,0.09195 -0.55346,0.117822 -0.29407,0.0303 -0.50473,0.101563 -0.59428,0.200504 -0.0763,0.0844 -0.20436,0.153479 -0.28422,0.153479 -0.0799,0 -0.26415,0.06449 -0.40927,0.143661 -0.19951,0.10895 -0.27319,0.119121 -0.30179,0.04134 -0.0208,-0.0566 -0.12286,-0.102838 -0.22738,-0.102838 -0.13582,0 -0.20565,-0.06092 -0.24391,-0.213423 -0.0377,-0.1504 -0.0916,-0.198337 -0.18294,-0.163296 -0.17057,0.0655 -0.77941,-0.480044 -0.90692,-0.812355 -0.0531,-0.13852 -0.0994,-0.351404 -0.10283,-0.473356 -0.004,-0.129709 -0.0815,-0.274317 -0.18707,-0.348297 -0.0993,-0.0695 -0.2193,-0.247743 -0.26717,-0.395843 -0.10635,-0.32906 -0.41031,-0.417756 -0.48266,-0.141076 -0.0261,0.100078 -0.094,0.160816 -0.15503,0.139525 -0.15118,-0.0527 -0.12109,-0.573968 0.0558,-0.966348 0.14217,-0.315302 0.12663,-0.577226 -0.0346,-0.577226 -0.0449,0 -0.17439,0.100386 -0.28784,0.222726 -0.11344,0.122328 -0.23062,0.197777 -0.26045,0.167947 -0.0853,-0.0853 0.0299,-0.306549 0.19069,-0.365868 0.2423,-0.0894 0.27474,-0.223306 0.0889,-0.364837 -0.16596,-0.12637 -0.17004,-0.15667 -0.0692,-0.53485 0.0588,-0.220591 0.15274,-0.475178 0.20825,-0.565856 0.0854,-0.139491 0.0929,-0.289023 0.046,-0.884701 -0.004,-0.05585 -0.042,-0.07577 -0.0966,-0.06666 z m 17.44855,0.343133 c -0.0126,-0.0013 -0.0225,7.72e-4 -0.0289,0.0072 -0.0258,0.0258 0.0144,0.109024 0.0899,0.184486 0.0754,0.0755 0.15808,0.115755 0.18396,0.08992 0.0258,-0.0259 -0.0143,-0.108509 -0.0899,-0.183968 -0.0566,-0.05663 -0.11728,-0.09363 -0.15503,-0.09767 z m -7.67344,0.517797 c -0.03,10e-4 -0.0512,0.03335 -0.0512,0.0863 0,0.14461 0.0493,0.165787 0.11989,0.05168 0.0261,-0.0421 0.0101,-0.09971 -0.0362,-0.128156 -0.0115,-0.0071 -0.0225,-0.01015 -0.0326,-0.0098 z m 0.48369,1.20251 c -0.0679,0 -0.1235,0.03738 -0.1235,0.08268 0,0.0453 0.0556,0.08217 0.1235,0.08217 0.0679,0 0.12351,-0.03687 0.12351,-0.08217 0,-0.0453 -0.0556,-0.08268 -0.12351,-0.08268 z m -1.18907,0.88005 c -0.0458,-0.004 -0.10101,-0.0017 -0.16536,0.0078 -0.32846,0.0482 -0.33567,0.265099 -0.008,0.265099 0.1329,0 0.26414,-0.03751 0.29249,-0.08268 0.0673,-0.109048 0.0184,-0.178165 -0.11886,-0.190169 z m 0.33435,0.42478 c -0.1584,-0.02698 -0.4145,0.0879 -0.65423,0.327628 -0.30255,0.302562 -0.3066,0.31382 -0.10283,0.282671 l 0.21239,-0.03256 -0.22635,0.177252 c -0.21141,0.165198 -0.29686,0.327628 -0.17208,0.327628 0.03,0 0.2248,-0.09751 0.43253,-0.21704 0.53168,-0.305792 0.6656,-0.438759 0.6656,-0.659908 0,-0.122126 -0.06,-0.189487 -0.15503,-0.205674 z m -5.97845,8.522994 c 0.0209,0.0035 0.0406,0.01251 0.0594,0.02739 0.0579,0.0457 0.16601,0.08201 0.24029,0.08061 0.0743,-0.002 0.25039,0.04553 0.39119,0.10387 0.18461,0.0765 0.2558,0.160554 0.2558,0.301276 0,0.107309 0.0664,0.236283 0.14728,0.286803 0.17682,0.110429 0.15192,0.650605 -0.03,0.650605 -0.0679,0 -0.0956,-0.05671 -0.0698,-0.144177 0.0378,-0.128058 0.0319,-0.129572 -0.0548,-0.01395 -0.0807,0.107598 -0.15963,0.116027 -0.45682,0.04806 -0.25832,-0.0592 -0.41098,-0.05503 -0.54415,0.01447 -0.10184,0.0531 -0.33358,0.109651 -0.5147,0.125571 -0.18112,0.0159 -0.4245,0.05472 -0.54106,0.08682 -0.14746,0.0405 -0.24447,0.01922 -0.31884,-0.07028 -0.0881,-0.10618 -0.0874,-0.129183 0.006,-0.130222 0.0886,-7.7e-4 0.0866,-0.0184 -0.0103,-0.0801 -0.0975,-0.0621 -0.0703,-0.08933 0.13022,-0.129707 0.21376,-0.0431 0.25425,-0.08898 0.25425,-0.290938 0,-0.39246 0.18323,-0.656186 0.41548,-0.597898 0.13948,0.035 0.25533,-0.0047 0.39584,-0.13694 0.10668,-0.100224 0.18215,-0.141806 0.24495,-0.13126 z m -0.28784,0.380338 c -0.0453,0 -0.0827,0.03687 -0.0827,0.08217 0,0.0453 0.0374,0.08217 0.0827,0.08217 0.0453,0 0.0822,-0.03687 0.0822,-0.08217 0,-0.0453 -0.0369,-0.08217 -0.0822,-0.08217 z m 8.37313,1.644862 c 0.0562,-0.01913 0.22673,0.09761 0.45528,0.330729 0.18248,0.18618 0.36543,0.306099 0.41961,0.274918 0.0528,-0.0304 0.18993,-0.120578 0.30489,-0.199988 0.19981,-0.13803 0.22859,-0.137498 0.65836,0.01085 0.54511,0.18818 0.57309,0.190823 0.57309,0.04754 0,-0.0624 0.0576,-0.161007 0.12764,-0.219107 0.10539,-0.0875 0.18452,-0.07537 0.46043,0.07183 0.18331,0.0978 0.38085,0.178284 0.43874,0.178284 0.1779,0 0.83832,0.319392 0.95756,0.463021 0.0976,0.117671 0.0883,0.151897 -0.0713,0.257866 -0.10125,0.0672 -0.18397,0.174183 -0.18397,0.237712 0,0.210079 0.42295,0.28784 1.34049,0.24598 0.86949,-0.0396 1.60582,0.07521 1.82469,0.284737 0.043,0.0412 0.24124,0.07493 0.44028,0.07493 0.39228,0 0.81401,0.200104 0.88367,0.419613 0.0239,0.0756 0.1908,0.239271 0.37052,0.363802 0.35058,0.242959 0.37334,0.293265 0.24185,0.538986 -0.11447,0.213921 -0.61729,0.210873 -0.94413,-0.0052 -0.15359,-0.101711 -0.38716,-0.163652 -0.61753,-0.164332 -0.23035,-7.6e-4 -0.46395,-0.0632 -0.61754,-0.164846 -0.13582,-0.09 -0.34403,-0.164031 -0.46302,-0.164333 -0.11898,0 -0.26246,-0.05609 -0.31884,-0.124023 -0.15428,-0.185899 -0.29637,-0.150305 -0.5147,0.128674 -0.17055,0.217922 -0.26347,0.257969 -0.6842,0.29404 -0.26765,0.023 -0.5016,0.05673 -0.51986,0.07493 -0.0673,0.0674 0.42245,0.202573 0.73381,0.202573 0.2415,0 0.31018,0.02826 0.27698,0.11472 -0.0242,0.0633 -0.005,0.1396 0.0439,0.1695 0.17753,0.109721 0.0775,0.200735 -0.3607,0.328145 -0.44245,0.1286 -0.66084,0.293557 -0.47181,0.356568 0.0533,0.0178 0.0971,0.06445 0.0971,0.103352 0,0.0389 -0.40226,0.06369 -0.89348,0.0553 -0.7324,-0.0124 -0.89136,-0.03663 -0.88471,-0.136943 0.005,-0.0672 -0.035,-0.122934 -0.0878,-0.124024 -0.0528,-7.7e-4 -0.12418,-0.03018 -0.15814,-0.06408 -0.034,-0.034 -0.12348,-0.06149 -0.19947,-0.06149 -0.076,0 -0.20459,-0.0736 -0.28577,-0.163298 -0.11869,-0.131148 -0.12799,-0.186589 -0.047,-0.28422 0.10445,-0.125871 0.0445,-0.328288 -0.0754,-0.254247 -0.0712,0.044 -0.20531,-0.193667 -0.17777,-0.315227 0.0445,-0.196411 -0.1986,-0.316735 -0.54518,-0.269234 -0.3151,0.0432 -0.36498,0.02799 -0.43047,-0.134877 -0.0407,-0.101248 -0.0762,-0.132228 -0.0791,-0.06873 -0.003,0.0766 -0.0607,0.05148 -0.17002,-0.07441 -0.22176,-0.25568 -0.21254,-0.268793 0.14418,-0.211873 0.64414,0.102809 0.67884,-0.24774 0.0537,-0.541571 -0.37379,-0.175699 -0.38813,-0.176487 -0.49713,-0.02739 -0.13367,0.182819 -0.14599,0.42078 -0.0258,0.49506 0.059,0.0364 0.0556,0.09009 -0.0103,0.1695 -0.12586,0.151648 -0.24081,0.148396 -0.24081,-0.0078 0,-0.0679 -0.0556,-0.123507 -0.12351,-0.123507 -0.14165,0 -0.16004,0.222893 -0.0434,0.529685 0.0483,0.127169 0.05,0.211354 0.004,0.211354 -0.10433,0 -0.41341,-0.716023 -0.41341,-0.957564 0,-0.220858 0.12181,-0.261765 0.19688,-0.06615 0.0298,0.0777 0.12362,0.118827 0.23513,0.102838 0.13711,-0.0197 0.18037,-0.07467 0.16588,-0.211357 -0.0108,-0.101741 0.0199,-0.185002 0.0682,-0.185002 0.0483,0 0.20096,-0.113623 0.33952,-0.252183 l 0.25166,-0.251663 -0.17569,-0.123508 c -0.0968,-0.0678 -0.17622,-0.173773 -0.17622,-0.235643 0,-0.0619 -0.10466,-0.217305 -0.23306,-0.345715 -0.1284,-0.128389 -0.27796,-0.316582 -0.33228,-0.418063 -0.0607,-0.113485 -0.0683,-0.174043 -0.0346,-0.185518 z m -10.34665,1.730642 c 0.1091,0 -0.10581,0.514316 -0.23254,0.556557 -0.0546,0.0181 -0.0992,0.0099 -0.0992,-0.01912 0,-0.120099 0.25772,-0.537435 0.33176,-0.537435 z m 19.7404,0.272852 c 0.0739,-1.83e-4 0.22247,0.02351 0.38189,0.06356 l 0.38654,0.09767 -0.25787,0.235643 c -0.14195,0.12964 -0.27272,0.235646 -0.29042,0.235646 -0.0178,0 -0.0946,-0.130839 -0.17053,-0.290939 -0.076,-0.160089 -0.11919,-0.310242 -0.0961,-0.333314 0.006,-0.0058 0.0219,-0.0082 0.0465,-0.0083 z m -15.99696,0.227377 c -1.02711,-0.006 -1.07992,0.002 -1.30948,0.199472 -0.13156,0.113128 -0.27027,0.205672 -0.30851,0.205672 -0.13272,0 -0.0688,0.235135 0.0744,0.273886 0.0792,0.0214 0.53277,0.0228 1.0082,0.0031 0.47544,-0.0199 1.18959,-0.04845 1.58699,-0.06305 0.39739,-0.0146 0.7481,-0.052 0.77928,-0.0832 0.10916,-0.109159 -0.1228,-0.337209 -0.44029,-0.433049 -0.17624,-0.0532 -0.80198,-0.09938 -1.39061,-0.102836 z m 3.65042,0.428914 c -0.10945,0.0087 -0.23409,0.09669 -0.23409,0.19172 0,0.15272 0.29913,0.147359 0.35812,-0.0062 0.0255,-0.0665 0.0144,-0.141124 -0.0248,-0.165365 -0.028,-0.0173 -0.0627,-0.02305 -0.0992,-0.02015 z m 15.06317,0.05995 c 0.10601,-7.62e-4 0.16739,0.03513 0.13901,0.08113 -0.0612,0.099 -0.0525,0.099 -0.20568,0 -0.0994,-0.0642 -0.0862,-0.08013 0.0667,-0.08113 z m -2.34456,0.113686 c 0.0353,-0.0054 0.0721,0.0102 0.092,0.04238 0.0264,0.0429 0.0129,0.09962 -0.03,0.12609 -0.0429,0.0265 -0.0996,0.01345 -0.12609,-0.02946 -0.0265,-0.0429 -0.0129,-0.09962 0.03,-0.12609 0.0107,-0.0066 0.0223,-0.01112 0.0341,-0.01292 z m -13.25449,0.04961 c -0.0604,0 -0.10956,0.07378 -0.10956,0.164333 0,0.18719 0.20616,0.224729 0.27337,0.04961 0.0517,-0.134641 -0.009,-0.213942 -0.16381,-0.213943 z m -3.25458,0.187587 c -0.17523,0.0077 -0.32836,0.03437 -0.42478,0.08526 l -0.23565,0.124542 0.44132,0.04806 c 1.23773,0.135379 1.47071,0.145203 1.47071,0.06149 0,-0.19308 -0.72591,-0.342506 -1.2516,-0.31936 z m 3.47214,0.646472 c -0.004,-0.01 -0.05,0.01417 -0.14211,0.06253 -0.10188,0.0535 -0.18501,0.133033 -0.18501,0.176731 0,0.116951 0.0392,0.09853 0.21343,-0.09767 0.078,-0.08784 0.11726,-0.131614 0.11369,-0.141591 z m -2.84014,0.183968 c -0.0752,0.01139 -0.16381,0.08271 -0.32763,0.241845 -0.30375,0.295 -0.35498,0.322273 -0.79995,0.421164 -0.12321,0.0274 -0.26343,0.123404 -0.31161,0.213423 -0.0796,0.148759 -0.0616,0.163814 0.19844,0.163814 0.1574,0 0.31196,0.04172 0.34365,0.09302 0.078,0.126201 1.39365,0.04288 1.56476,-0.09922 0.0705,-0.0585 0.19787,-0.242549 0.28267,-0.40876 0.18894,-0.37034 0.10351,-0.490926 -0.3483,-0.490926 -0.17267,0 -0.38319,-0.0428 -0.46767,-0.0956 -0.049,-0.0306 -0.0892,-0.04559 -0.13436,-0.03876 z m -3.2613,1.998326 c 0.0415,0.0062 0.0879,0.02618 0.13333,0.05943 0.13781,0.10078 0.12932,0.113451 -0.10956,0.161232 -0.20861,0.0417 -0.25941,0.09262 -0.25941,0.259932 0,0.20792 -0.11673,0.261607 -0.30644,0.141076 -0.0555,-0.0352 -0.11107,-0.154922 -0.12351,-0.266134 -0.019,-0.169899 0.0168,-0.207066 0.22427,-0.230476 0.13584,-0.0153 0.28691,-0.06078 0.3359,-0.101285 0.0271,-0.02235 0.0639,-0.02997 0.10542,-0.02377 z m 4.10311,0.123508 c -0.0144,0.0015 -0.0272,0.01978 -0.0388,0.05478 -0.0181,0.0543 -0.0852,0.0987 -0.14934,0.0987 -0.12307,0 -0.15886,0.177557 -0.0563,0.280085 0.0857,0.0857 0.36216,-0.278172 0.29455,-0.387572 v -5.16e-4 c -0.0196,-0.0318 -0.0357,-0.04693 -0.0501,-0.04548 z m -5.5485,0.481623 c 0.10384,-0.0072 0.2257,0.02978 0.29662,0.11524 0.0772,0.0931 0.0409,0.120165 -0.19585,0.147793 -0.2374,0.0277 -0.29042,0.007 -0.29042,-0.114205 0,-0.09039 0.0858,-0.141586 0.18965,-0.148828 z m 1.47071,0.314193 0.20102,0.189137 c 0.11074,0.10404 0.18476,0.233038 0.16433,0.286288 -0.0204,0.0533 0.005,0.138334 0.0553,0.189134 0.0508,0.0508 0.0609,0.0925 0.0222,0.0925 -0.0387,0 -0.005,0.07234 0.0755,0.161232 0.0838,0.0926 0.12394,0.219874 0.094,0.297656 -0.0422,0.109829 -0.0141,0.126003 0.14624,0.08578 0.206,-0.0517 0.27257,0.02945 0.34778,0.422714 0.0273,0.14264 -0.003,0.185002 -0.13074,0.185002 h -0.1664 l 0.16485,0.164849 c 0.17824,0.17826 0.20689,0.293155 0.091,0.364834 -0.0405,0.0251 -0.0966,-0.01402 -0.12454,-0.08681 -0.0333,-0.0868 -0.11053,-0.116933 -0.22376,-0.08733 -0.1244,0.0325 -0.18444,0.0012 -0.21445,-0.113689 -0.0229,-0.0876 -0.0881,-0.159679 -0.14521,-0.159679 -0.0571,0 -0.1535,-0.0595 -0.21395,-0.132291 -0.0935,-0.112641 -0.0858,-0.150265 0.0517,-0.251664 0.15309,-0.112961 0.15005,-0.11693 -0.0651,-0.07855 -0.12491,0.0223 -0.29653,0.0625 -0.38137,0.0894 -0.12501,0.0397 -0.16221,-0.0021 -0.19482,-0.221176 -0.0236,-0.15779 0.007,-0.337632 0.0729,-0.43253 0.17139,-0.246611 0.14133,-0.278477 -0.21652,-0.230479 -0.18111,0.0243 -0.32918,0.02527 -0.32918,0.0021 0,-0.0232 0.20657,-0.198234 0.4594,-0.389125 z m 4.25452,0.531236 c 0.0507,-0.0072 0.0946,0.02239 0.0946,0.09508 0,0.0717 -0.0586,0.130741 -0.13022,0.130741 -0.0717,0 -0.11556,-0.04438 -0.0977,-0.09818 0.0254,-0.07632 0.0827,-0.120401 0.13332,-0.127641 z m 7.98143,0.887283 c 0.11075,0.0141 0.57202,0.560715 0.75344,0.904338 0.0842,0.159451 0.30326,0.489545 0.48679,0.733805 0.18355,0.244251 0.3568,0.549148 0.38499,0.677477 0.0283,0.128331 0.0855,0.233579 0.12713,0.233579 0.0417,0 0.0754,0.05562 0.0754,0.123505 0,0.196501 -0.12821,0.144552 -0.35656,-0.144177 -0.11638,-0.147169 -0.34576,-0.415742 -0.50953,-0.596863 -0.30472,-0.337029 -1.06829,-1.839981 -0.97927,-1.927529 0.004,-0.004 0.0102,-0.0051 0.0176,-0.0041 z m 9.11882,0.161747 c -0.0199,0 -0.0592,0.03686 -0.0873,0.08217 -0.028,0.0453 -0.0116,0.08216 0.0362,0.08216 0.0479,0 0.0873,-0.03686 0.0873,-0.08216 0,-0.0453 -0.0161,-0.08217 -0.0362,-0.08217 z m -9.86658,2.169377 c 0.23607,-0.01415 0.43429,0.06261 0.52606,0.234093 0.0828,0.15462 0.0657,0.204907 -0.12557,0.369488 -0.23502,0.20216 -0.44638,0.221927 -1.01492,0.09457 -0.40532,-0.0908 -0.42975,-0.158366 -0.13901,-0.387056 0.24355,-0.191579 0.51737,-0.296942 0.75344,-0.311092 z m -9.10694,0.794266 c 0.041,0 0.0744,0.07378 0.0744,0.16433 0,0.0906 -0.0141,0.164849 -0.0315,0.164849 -0.0174,0 -0.0507,-0.07429 -0.0744,-0.164849 -0.0237,-0.0906 -0.01,-0.16433 0.0315,-0.16433 z m 18.56993,1.497066 c 0.0106,-0.0034 0.022,-0.0035 0.0341,5.18e-4 0.0487,0.0162 0.0889,0.06449 0.0889,0.107487 0,0.043 -0.0402,0.09179 -0.0889,0.108003 -0.0486,0.0162 -0.0884,-0.03249 -0.0884,-0.108003 0,-0.05655 0.0225,-0.09767 0.0543,-0.108005 z m -16.59951,0.06925 c -0.0869,-0.01035 -0.16639,0.0016 -0.16639,0.04444 0,0.0256 0.0367,0.115086 0.0816,0.198956 0.0902,0.168619 0.0217,0.659908 -0.092,0.659908 -0.0396,0 -0.0718,-0.111175 -0.0718,-0.247015 0,-0.240048 -0.0112,-0.246935 -0.39119,-0.244946 -0.31276,0.002 -0.46715,0.05799 -0.7705,0.280604 -0.31294,0.229669 -0.38884,0.337884 -0.43356,0.617532 -0.0298,0.186421 -0.1277,0.401596 -0.21756,0.478526 -0.0899,0.077 -0.1633,0.240702 -0.1633,0.363802 0,0.1231 -0.0325,0.244097 -0.0723,0.268716 -0.10697,0.0661 -0.3201,0.76526 -0.38654,1.26814 -0.0363,0.274579 -0.0184,0.604089 0.0475,0.879015 0.0768,0.320312 0.0824,0.529127 0.0212,0.770495 -0.0822,0.323893 -0.0784,0.332722 0.15244,0.38344 0.12989,0.0285 0.25737,0.08588 0.28319,0.127643 0.0594,0.0962 0.0687,0.09546 0.32143,-0.01964 h -10e-4 c 0.15226,-0.0694 0.20981,-0.158675 0.20981,-0.326596 0,-0.127198 0.0738,-0.362704 0.16381,-0.522965 0.1647,-0.293219 0.19456,-0.66339 0.0672,-0.834575 -0.0378,-0.0508 -0.0336,-0.180644 0.01,-0.288353 0.0431,-0.10772 0.0808,-0.145487 0.0837,-0.08372 0.004,0.0907 0.043,0.08788 0.20153,-0.01602 0.21549,-0.141189 0.29766,-0.107082 0.29766,0.123508 0,0.083 0.0369,0.150894 0.0822,0.150894 0.0453,0 0.0822,-0.06961 0.0822,-0.154511 0,-0.0849 0.10234,-0.249349 0.22686,-0.365869 0.12452,-0.11653 0.43072,-0.417811 0.68058,-0.66921 0.47594,-0.47888 0.57464,-0.536223 0.57464,-0.334862 0,0.1631 0.40766,0.264398 0.49506,0.122989 0.0363,-0.0587 0.0241,-0.174273 -0.0274,-0.256831 -0.0745,-0.1192 -0.0645,-0.179867 0.0486,-0.293008 0.13506,-0.13507 0.14263,-0.134734 0.14263,0.0041 0,0.219911 0.14303,0.08765 0.37103,-0.342615 0.13277,-0.250571 0.188,-0.309308 0.1571,-0.167949 -0.0273,0.124701 -0.008,0.242461 0.0465,0.275952 0.1324,0.0818 0.17551,0.01617 0.18397,-0.281635 0.009,-0.329581 0.15864,-0.284012 0.25218,0.077 0.0621,0.23976 0.0461,0.296537 -0.11834,0.420648 -0.10469,0.079 -0.16324,0.170595 -0.13023,0.203605 0.033,0.033 0.13234,-0.0061 0.22118,-0.0863 0.14873,-0.13458 0.17213,-0.13535 0.29455,-0.01292 0.15973,0.15971 0.1621,0.159753 0.37414,0.02997 0.14231,-0.0871 0.18068,-0.08004 0.25167,0.04496 0.076,0.13377 0.11438,0.117131 0.40721,-0.175699 0.22438,-0.22438 0.32365,-0.39524 0.32452,-0.559139 7.7e-4,-0.17775 0.0204,-0.20642 0.078,-0.115239 0.12425,0.196461 0.20299,0.0222 0.0961,-0.212389 -0.0632,-0.138581 -0.0697,-0.249129 -0.0191,-0.31006 0.0504,-0.0607 0.0443,-0.20346 -0.0165,-0.397907 -0.10075,-0.321871 -0.39195,-0.478602 -0.58756,-0.316262 -0.0564,0.0468 -0.1251,0.06254 -0.15245,0.03514 -0.0274,-0.0274 -0.11625,0.05967 -0.19792,0.193268 -0.0817,0.133601 -0.19613,0.226814 -0.25425,0.207224 -0.0582,-0.0196 -0.15704,0.0071 -0.21962,0.05891 -0.0894,0.0742 -0.1248,0.05912 -0.16588,-0.07028 -0.08,-0.252061 -0.31415,-0.120841 -0.27389,0.153479 0.041,0.279339 -0.0998,0.425371 -0.30127,0.312643 -0.10545,-0.059 -0.16592,-0.05158 -0.21343,0.02532 -0.0543,0.088 -0.0893,0.08763 -0.19585,-10e-4 -0.0713,-0.0592 -0.12971,-0.160774 -0.12971,-0.225825 0,-0.065 -0.038,-0.09495 -0.0847,-0.06615 -0.0466,0.0288 -0.21698,0.0651 -0.37827,0.0801 -0.26114,0.0242 -0.28853,0.0085 -0.24908,-0.142627 0.0244,-0.0932 0.0238,-0.271941 -10e-4,-0.397391 -0.0411,-0.205459 -0.0722,-0.223766 -0.31419,-0.184486 -0.15471,0.0251 -0.29253,0.0053 -0.32505,-0.04754 -0.0286,-0.0463 -0.12294,-0.07905 -0.20981,-0.0894 z m -4.95732,0.162264 c -0.19273,0 -0.31588,1.118129 -0.17931,1.627809 0.0678,0.253019 0.24556,0.10464 0.3576,-0.29869 0.15303,-0.550979 0.0487,-1.329119 -0.17829,-1.329119 z m 21.39973,0.505397 c 0.031,-0.0075 0.0737,0.0087 0.12092,0.05581 0.0742,0.0742 0.0746,0.120557 0,0.193786 -0.0733,0.0733 -0.10919,0.06234 -0.15037,-0.04496 h 0.002 c -0.0436,-0.113602 -0.0238,-0.19218 0.0279,-0.204639 z m 0.95808,0.02325 c -0.01,-0.0023 -0.0207,-2.78e-4 -0.032,0.0067 -0.0453,0.028 -0.0822,0.12493 -0.0822,0.215489 0,0.0906 0.0369,0.141669 0.0822,0.113689 0.0453,-0.028 0.0827,-0.124931 0.0827,-0.21549 0,-0.06795 -0.0211,-0.113575 -0.0506,-0.120406 z m -19.90886,0.377237 c -0.02,0 -0.0593,0.03687 -0.0873,0.08217 -0.028,0.0453 -0.0113,0.08217 0.0367,0.08217 0.0479,0 0.0868,-0.03687 0.0868,-0.08217 0,-0.0453 -0.0162,-0.08217 -0.0362,-0.08217 z m 5.49269,0.113173 c 0.009,-0.0087 0.0204,0.0029 0.0336,0.03566 0.0238,0.0594 0.0207,0.130771 -0.006,0.158131 -0.0274,0.0274 -0.047,-0.02124 -0.0434,-0.108003 h -5.2e-4 c 0.002,-0.04795 0.008,-0.07712 0.0165,-0.08578 z m -1.5596,5.16e-4 c 0.0222,7.54e-4 0.0251,0.03347 0.004,0.08785 -0.0547,0.142621 -0.11369,0.168537 -0.11369,0.05012 h -5.2e-4 c 0,-0.0426 0.0369,-0.09997 0.0816,-0.12764 0.0117,-0.0072 0.021,-0.01059 0.0284,-0.01033 z m 1.80506,0.33383 c 0.046,-0.0027 0.0604,0.02981 0.0465,0.101285 -0.0338,0.17426 -0.23254,0.246333 -0.23254,0.08423 0,-0.0668 0.0584,-0.143729 0.1297,-0.171048 0.0226,-0.0087 0.041,-0.01358 0.0563,-0.01447 z m 2.69028,0.540536 c 0.0479,0 0.0873,0.03686 0.0873,0.08216 0,0.0453 -0.0162,0.08217 -0.0362,0.08217 -0.02,0 -0.0593,-0.03686 -0.0873,-0.08217 -0.028,-0.0453 -0.0118,-0.08216 0.0362,-0.08216 z m 12.61111,0.453202 c -0.0293,0.0044 -0.061,0.01332 -0.0951,0.02635 -0.31697,0.121161 -0.43563,0.314955 -0.81546,1.331185 -0.19459,0.520706 -0.45421,1.113481 -0.57671,1.317231 -0.12254,0.203761 -0.31659,0.57676 -0.43149,0.828892 -0.23008,0.50482 -1.30593,2.157135 -1.73168,2.659785 -0.1487,0.175508 -0.42899,0.545925 -0.62322,0.823206 -0.64928,0.926938 -1.87577,2.066205 -3.22823,2.998266 -0.66876,0.460891 -0.85452,0.621811 -2.09909,1.81901 -0.45279,0.43556 -1.02357,0.958623 -1.26814,1.162204 -0.24459,0.203589 -0.60195,0.503692 -0.79427,0.667141 -0.4939,0.41977 -1.57877,1.172271 -1.98902,1.379763 -0.27192,0.13752 -0.49346,0.175051 -1.02888,0.173633 -0.79051,-0.002 -0.98475,-0.07423 -2.08205,-0.776698 -1.13498,-0.726519 -1.89715,-1.525188 -2.6634,-2.790529 -0.18789,-0.310258 -0.34158,-0.580114 -0.34158,-0.599445 0,-0.0194 -0.30672,-0.561702 -0.68161,-1.205611 -0.92132,-1.58247 -1.28747,-2.41146 -1.41697,-3.210139 -0.0511,-0.315172 -0.42072,-0.815777 -0.7214,-0.976686 -0.29477,-0.157771 -0.36809,0.05945 -0.51677,1.534274 -0.13048,1.294299 -0.12741,2.845176 0.006,3.309874 0.0235,0.0815 -0.002,0.06499 -0.0553,-0.03721 -0.15735,-0.29909 -0.21981,-0.219757 -0.28991,0.370004 -0.13223,1.112758 -0.0598,2.451936 0.20568,3.808034 0.29882,1.526262 0.32259,1.699107 0.42426,3.127976 0.0697,0.97962 0.0998,1.128747 0.25425,1.255738 0.23146,0.19032 0.40943,0.18232 0.4625,-0.0207 0.051,-0.194933 0.15177,-0.214123 0.21808,-0.0413 0.0261,0.0679 0.12639,0.12351 0.22272,0.12351 0.51695,0 1.87178,-0.566332 2.56884,-1.073843 0.64389,-0.468788 1.82544,-1.175805 2.43758,-1.458825 0.52898,-0.24457 0.73029,-0.289417 1.56424,-0.348816 0.52641,-0.0375 1.0582,-0.107188 1.18236,-0.15503 0.19451,-0.0749 0.51366,0.01049 2.30528,0.618567 3.11872,1.058521 3.25601,1.100709 3.56981,1.100709 0.52393,0 0.38956,0.171127 2.29909,-2.922302 0.30745,-0.498081 0.97012,-1.508228 1.47226,-2.244307 2.11794,-3.104631 2.46426,-3.645183 2.89026,-4.506703 0.56562,-1.14391 0.84444,-2.007656 1.26297,-3.915005 0.39896,-1.817982 0.53468,-2.837027 0.46199,-3.468005 -0.0606,-0.525825 -0.15314,-0.714986 -0.35812,-0.684197 z M 121.2286,81.38848 c 0.0378,0 0.0294,0.07429 -0.0191,0.164846 -0.087,0.162581 -0.24701,0.226473 -0.24701,0.0987 0,-0.0866 0.1786,-0.263549 0.26613,-0.263549 z m 11.35848,0.494543 c 0.0109,-3e-6 0.031,0.03159 0.0682,0.0956 0.0888,0.152123 0.0258,0.398426 -0.10232,0.398426 -0.0453,0 -0.06,-0.05859 -0.0325,-0.130223 v -5.18e-4 c 0.0274,-0.0717 0.0509,-0.192154 0.0522,-0.267685 10e-4,-0.064 0.004,-0.0956 0.0145,-0.0956 z m 0.16485,0.658358 c 0.12639,0 0.3948,0.411014 0.3948,0.604612 0,0.195022 -0.12936,0.229738 -0.2682,0.07235 -0.1822,-0.20664 -0.27014,-0.67696 -0.1266,-0.67696 z m 0.7245,0.323492 c 0.0347,-0.01783 0.16969,0.08903 0.32763,0.262517 0.22606,0.248359 0.3224,0.424574 0.30902,0.566375 -0.0268,0.283718 -0.32375,0.319834 -0.49402,0.05994 -0.11332,-0.172921 -0.17619,-0.536276 -0.15142,-0.873331 6.3e-4,-0.0078 0.004,-0.01296 0.009,-0.0155 z m -14.44253,0.03152 c 0.0875,0.0088 0.1427,0.228311 0.0568,0.314192 -0.0547,0.0548 -0.097,0.02545 -0.1266,-0.08785 -0.0245,-0.0935 -0.0109,-0.190447 0.0305,-0.216006 0.0135,-0.0084 0.0268,-0.0116 0.0393,-0.01034 z m -0.95188,1.25522 c -0.0647,0.002 -0.0832,0.04965 -0.0832,0.167434 0,0.21609 0.008,0.221313 0.19896,0.147793 0.18284,-0.0702 0.16207,-0.251412 -0.0346,-0.302823 -0.0327,-0.0085 -0.0596,-0.01306 -0.0811,-0.0124 z m 1.88464,5.469435 c -0.0444,0 -0.0331,0.05186 0.0253,0.115239 0.11819,0.12826 0.19403,0.10931 0.10956,-0.02739 -0.0299,-0.0483 -0.0905,-0.08785 -0.13488,-0.08785 z m 0.69505,0.494027 c -0.26597,0 -0.33706,0.301083 -0.11886,0.504362 0.0949,0.0884 0.17252,0.205619 0.1726,0.260448 0,0.0849 0.35713,0.35719 0.49868,0.380339 0.0253,0.004 0.11092,-0.03977 0.19017,-0.09767 0.11855,-0.0867 0.12877,-0.14605 0.0574,-0.33383 -0.116,-0.305088 -0.57386,-0.71365 -0.79995,-0.71365 z m 6.28024,8.287867 c -0.12342,0.0022 -0.22954,0.01561 -0.30335,0.04134 -0.40686,0.14183 -0.40473,0.720566 0.004,0.850077 0.21172,0.0672 0.33021,-0.0089 0.33021,-0.212908 0,-0.330901 0.28281,-0.260831 1.26711,0.314709 0.20947,0.122481 0.32978,0.09542 0.36432,-0.08268 h -5.2e-4 c 0.0373,-0.192159 -0.21771,-0.542462 -0.50178,-0.689364 -0.2649,-0.136985 -0.78937,-0.227867 -1.15961,-0.221173 z m 0.14107,1.097605 c -0.14277,0 -0.15028,0.585653 -0.01,0.726573 0.162,0.162 0.34927,0.0737 0.37827,-0.1788 h 5.2e-4 c 0.0282,-0.245971 -0.1751,-0.547773 -0.36897,-0.547773 z m 3.49798,0.171051 c -0.19497,0.0011 -0.42371,0.04317 -0.71469,0.12609 -0.9402,0.268162 -1.19141,0.552422 -1.65209,1.870172 -0.25722,0.73574 -0.32185,1.23831 -0.17157,1.33119 0.0453,0.028 0.0824,0.15048 0.0827,0.27233 7.7e-4,0.32556 0.15194,0.81493 0.29663,0.95963 0.22428,0.22428 0.42796,0.15093 0.61805,-0.22324 0.0978,-0.19244 0.33607,-0.5722 0.52917,-0.84388 0.19312,-0.27167 0.41063,-0.69767 0.48369,-0.94671 0.0971,-0.33094 0.26757,-0.60582 0.63252,-1.02112 0.72139,-0.82088 0.82755,-1.18823 0.40721,-1.405606 -0.15546,-0.08039 -0.31663,-0.119976 -0.5116,-0.118856 z m -5.65495,5.874062 c -0.1227,-0.004 -0.2612,0.053 -0.43874,0.17053 -0.32775,0.2169 -0.33295,0.22771 -0.29455,0.62735 0.064,0.66523 0.51445,1.01393 0.84233,0.65165 0.0805,-0.089 0.19577,-0.37524 0.25631,-0.63563 0.0972,-0.41826 0.0946,-0.49013 -0.0212,-0.61805 -0.11484,-0.1269 -0.22146,-0.1919 -0.34416,-0.19585 z m -2.312,0.45837 c -0.0479,0 -0.0873,0.0374 -0.0873,0.0827 0,0.0453 0.0162,0.0822 0.0362,0.0822 0.02,0 0.0593,-0.0369 0.0873,-0.0822 0.028,-0.0453 0.0118,-0.0827 -0.0362,-0.0827 z m -1.78956,0.75241 c -0.0188,0.002 -0.0383,0.007 -0.0584,0.015 -0.1834,0.0703 -0.33479,0.61164 -0.21238,0.75913 0.12946,0.15601 0.23721,0.15181 0.42271,-0.016 0.2656,-0.24036 0.13055,-0.79165 -0.15193,-0.75809 z m 4.07004,3.38222 c -0.0902,0.006 -0.19764,0.0248 -0.32505,0.0563 -0.68538,0.16972 -0.77539,0.25574 -0.83922,0.79892 -0.0306,0.26051 -0.12487,0.58706 -0.20929,0.72605 -0.20753,0.34167 -0.27404,0.82784 -0.18087,1.31878 0.0935,0.49272 0.2877,0.67564 0.54002,0.50902 0.0934,-0.0617 0.18137,-0.19115 0.19585,-0.28784 0.0211,-0.14121 -0.0157,-0.1757 -0.18759,-0.1757 -0.234,0 -0.3447,-0.16727 -0.23667,-0.35812 0.0377,-0.0667 0.20885,-0.2729 0.38033,-0.45785 0.27603,-0.2977 0.31796,-0.39812 0.36278,-0.87799 0.0598,-0.6407 0.17943,-0.80679 0.49505,-0.68678 0.30433,0.1157 0.45234,0.0369 0.42117,-0.22427 -0.0302,-0.25271 -0.14578,-0.35736 -0.41651,-0.34055 z m -0.37311,1.95389 c -0.0339,0.006 -0.0712,0.0373 -0.0889,0.0904 -0.0181,0.0543 0.0113,0.0838 0.0656,0.0656 0.0543,-0.0181 0.0964,-0.0597 0.093,-0.0925 -0.005,-0.0492 -0.0358,-0.0693 -0.0698,-0.0636 z"
       id="path21"
       inkscape:connector-curvature="0" />
  </g>
</svg>
