<?xml version="1.0" encoding="UTF-8" standalone="no"?>
<svg
   xmlns:dc="http://purl.org/dc/elements/1.1/"
   xmlns:cc="http://creativecommons.org/ns#"
   xmlns:rdf="http://www.w3.org/1999/02/22-rdf-syntax-ns#"
   xmlns:svg="http://www.w3.org/2000/svg"
   xmlns="http://www.w3.org/2000/svg"
   xmlns:sodipodi="http://sodipodi.sourceforge.net/DTD/sodipodi-0.dtd"
   xmlns:inkscape="http://www.inkscape.org/namespaces/inkscape"
   width="97.002502mm"
   height="123.13307mm"
   viewBox="0 0 97.002501 123.13307"
   version="1.1"
   id="svg222"
   inkscape:version="1.0 (4035a4fb49, 2020-05-01)"
   sodipodi:docname="Sitting pose.svg">
  <title
     id="title23">Sitting pin-up pose</title>
  <defs
     id="defs216" />
  <sodipodi:namedview
     fit-margin-bottom="0"
     fit-margin-right="0"
     fit-margin-left="0"
     fit-margin-top="0"
     id="base"
     pagecolor="#ffffff"
     bordercolor="#666666"
     borderopacity="1.0"
     inkscape:pageopacity="0.0"
     inkscape:pageshadow="2"
     inkscape:zoom="0.40411772"
     inkscape:cx="1462.5263"
     inkscape:cy="-67.244794"
     inkscape:document-units="mm"
     inkscape:current-layer="layer1"
     inkscape:document-rotation="0"
     showgrid="false"
     inkscape:snap-global="false"
     inkscape:window-width="1920"
     inkscape:window-height="1001"
     inkscape:window-x="-9"
     inkscape:window-y="-9"
     inkscape:window-maximized="1" />
  <metadata
     id="metadata219">
    <rdf:RDF>
      <cc:Work
         rdf:about="">
        <dc:format>image/svg+xml</dc:format>
        <dc:type
           rdf:resource="http://purl.org/dc/dcmitype/StillImage" />
        <dc:title>Sitting pin-up pose</dc:title>
        <cc:license
           rdf:resource="http://creativecommons.org/publicdomain/zero/1.0/" />
      </cc:Work>
      <cc:License
         rdf:about="http://creativecommons.org/publicdomain/zero/1.0/">
        <cc:permits
           rdf:resource="http://creativecommons.org/ns#Reproduction" />
        <cc:permits
           rdf:resource="http://creativecommons.org/ns#Distribution" />
        <cc:permits
           rdf:resource="http://creativecommons.org/ns#DerivativeWorks" />
      </cc:License>
    </rdf:RDF>
  </metadata>
  <g
     transform="translate(13.7351,-70.236521)"
     inkscape:label="Lager 1"
     inkscape:groupmode="layer"
     id="layer1">
    <path
       style="fill:#ff2a2a;fill-opacity:1;stroke:none;stroke-width:0.264583px;stroke-linecap:butt;stroke-linejoin:miter;stroke-opacity:1"
       d="m 1.577968,188.38786 c 0,0 -1.32692764,-1.2552 -1.25520182,-1.68556 0.0717258,-0.43035 1.14761312,-5.23598 1.14761312,-5.23598 l 1.0400243,-0.14345 c 0,0 0.9324357,-0.39449 0.9324357,-0.57381 0,-0.17931 0.8607099,-1.75728 0.8607099,-1.75728 l 1.2910645,-0.39449 4.5904523,0.17931 -0.03586,-2.11591 -6.6346379,-1.14761 -0.2151774,-0.6814 0.5020808,-0.82484 2.1876374,-0.64554 -0.3586292,-1.07589 0.6455325,-1.18347 7.0291298,0.57381 6.598775,5.12839 2.617993,0.71726 -1.255202,1.75728 -3.586291,2.83317 -6.060831,2.15178 -6.2042838,0.89657 -1.5062422,2.43868 -1.0400244,0.9683 z"
       id="path299" />
    <path
       id="path301"
       style="fill:#f1c0b1;fill-opacity:1;stroke:none;stroke-width:0.999999px;stroke-linecap:butt;stroke-linejoin:miter;stroke-opacity:1"
       d="m 18.210938,274.78711 -47.251954,13.51367 7.572266,50.60547 1.533203,3.92969 8.818359,14.37695 3.0664068,4.02539 -3.2597658,4.69727 -23.576172,-0.76758 -8.722656,9.67969 -4.984375,13.51562 -1.916016,28.17774 2.683594,17.63476 4.408203,12.93945 3.355469,25.78321 3.449219,22.13867 2.875,19.16992 -1.052735,34.4082 3.449219,24.53516 5.560547,28.5625 5.173828,23.48242 3.546875,16.96485 -4.121094,13.99218 -4.3125,15.81446 3.929688,7.57226 5.271484,10.44727 5.462891,9.96679 1.6289061,7.57227 1.4375,0.76758 c 0.3833787,-1.246 1.7246094,-8.24414 1.7246094,-8.24414 0,0 -2.7792969,-9.48741 -2.7792969,-10.0625 0,-0.57506 -1.3417966,-6.23047 -1.3417966,-6.23047 0,0 1.3431837,-0.95898 1.7265622,-0.95898 0.3833791,0 5.0781251,7.95507 5.078125,7.95507 l 3.7382813,10.92774 c 0,0 3.0683594,-8.62626 3.0683594,-9.10547 0,-0.47925 -5.0800782,-10.54297 -5.0800781,-10.54297 l -0.7675782,-5.08008 c 0,0 8.7218071,7.85938 9.296875,7.85938 0.5750684,0 4.6015624,-0.28711 4.6015624,-0.28711 l 0.765625,-4.21875 -4.5996092,-2.97071 -5.7519532,-9.77539 1.7265625,-25.8789 -4.41015622,-12.45899 -2.39453128,-16.58203 0.765625,-61.24414 -1.7246094,-39.10547 -1.7246093,-31.43554 0.4785156,-23.00391 6.421875,4.79297 16.6757815,18.30664 1.15039,-43.41797 2.300782,-22.61914 12.076171,-31.72461 -0.765624,-2.49219 -12.078126,-7.76367 5.367188,-1.24609 20.128906,7.09179 c 0,0 -4.218608,-9.87162 -4.314453,-10.83007 -0.09585,-0.95845 -1.533203,-28.36914 -1.533203,-28.36915 l -1.820312,-7.95507 4.408203,-9.39258 -1.341797,-6.90235 H 39.775391 L 29.041016,304.88086 Z m 89.710942,26.35742 -46.005864,0.95703 -12.267578,-0.1914 5.941406,19.74414 21.277344,3.25976 16.292968,1.91602 24.728514,6.32617 -13.22656,11.11719 -17.634766,13.61133 -10.160156,2.68359 -2.875,23.00195 27.027342,11.11719 24.72852,-21.27734 20.51172,-24.34375 14.95117,-15.14258 1.15039,-8.24414 -3.06836,-9.58399 -5.55859,-1.91601 c 0,0 -14.56857,-4.9852 -18.40235,-5.75196 -3.83379,-0.76676 -27.41015,-7.2832 -27.41015,-7.2832 z m 10.92578,282.93359 -7.28516,3.83399 -11.11719,9.00781 -11.501951,18.01953 -9.77539,29.13672 5.367187,26.64453 -7.476562,11.31055 -11.69336,6.51758 -22.042968,7.47461 -19.361328,3.64258 1.533203,2.30078 25.6875,7.2832 59.998049,-0.19141 44.66406,5.17579 66.89844,12.26757 56.74023,2.10938 23.19531,-8.24219 7.0918,-10.73437 3.64258,-14.76172 c 0,0 -0.19141,-12.26645 -0.19141,-13.03321 0,-0.76675 -6.32617,-13.80273 -6.32617,-13.80273 l -14.95117,-12.45899 -20.89453,-15.14453 -16.86914,-9.00976 -12.65039,-6.70899 c 0,0 -49.07272,-18.97656 -54.05664,-18.97656 -4.98393,0 -41.59766,-13.41797 -41.59766,-13.41797 l -11.11719,-4.4082 -9.96875,-3.25977 z"
       transform="scale(0.26458333)" />
    <path
       style="fill:#ff2a2a;fill-opacity:1;stroke:none;stroke-width:0.264583px;stroke-linecap:butt;stroke-linejoin:miter;stroke-opacity:1"
       d="m 22.112966,177.30947 -1.217227,-8.62203 3.093786,-7.25264 3.24594,-4.31102 c 0,0 1.977995,-1.4201 2.383737,-1.67369 0.405743,-0.25358 2.333019,-1.06507 2.333019,-1.06507 l 3.955991,1.4201 -0.202872,-5.42681 -1.420098,-8.31772 -2.637327,-6.74547 -0.608613,-14.45457 -1.4201,-2.33302 c 0,0 -1.014355,-2.89092 -1.065073,-3.19523 -0.05072,-0.3043 4.108143,-7.15121 4.108143,-7.15121 0,0 -3.600966,-2.73876 -3.854555,-2.73876 -0.253588,0 -5.376088,-2.33302 -5.376088,-2.33302 l -4.463167,-1.67369 -5.781831,-1.42009 -5.4268058,-1.572257 -2.0811179,0.381192 2.9876848,1.654955 -0.044364,1.36195 -2.7387618,6.69475 -0.8622027,5.27465 -0.2028714,7.70911 -0.2028711,5.83255 3.4995291,4.36173 5.4268058,6.03542 0.304307,4.05742 -1.115792,6.39045 -2.33302,8.97705 -0.152153,7.25265 3.448811,7.4048 3.905272,3.60096 z"
       id="path1126"
       sodipodi:nodetypes="ccccscccccccscscccccccccccccccccccc" />
    <path
       style="fill:#f4bd50;fill-opacity:1;stroke:none;stroke-width:0.264583px;stroke-linecap:butt;stroke-linejoin:miter;stroke-opacity:1"
       d="m -9.2813596,96.871021 2.5866084,-0.659331 3.9559894,0.862203 2.48517274,0.659331 -0.25358906,-0.862203 c 0,0 -2.94163308,-2.99235 -3.19522218,-3.296658 -0.2535891,-0.304307 -1.3693809,-2.535891 -1.3693809,-2.535891 l -0.4564605,-1.673688 c 0,0 1.5215346,-1.36938 1.7751235,-1.420098 0.2535891,-0.05072 1.0143564,-1.775124 1.0143564,-1.775124 L -3.0430687,83.684389 -5.3253703,80.23558 -3.4995291,79.931272 -2.4851728,77.851843 -0.81148501,76.533178 0,75.315952 l 1.3186631,-0.50718 3.3980936,0.811485 1.1157918,2.180868 0.6086136,0.659331 -0.2028711,1.521534 1.1665095,0.202872 0.3550248,2.688042 0.1014357,0.50718 1.62297,-0.25359 0.963638,-0.152154 0.608614,0.760767 0.152153,1.521534 -0.963638,2.180868 0.507178,4.463166 0.304307,4.564605 0.405743,2.130147 1.115791,1.369381 5.223935,1.014352 5.477524,2.02872 -1.369381,-3.09379 -0.760767,-1.62297 -0.811485,-3.043069 0.253589,-3.905271 c 0,0 -0.71005,-2.282301 -0.862203,-2.586609 -0.152153,-0.304307 -1.217227,-1.470816 -1.217227,-1.470816 l -1.968149,-1.451652 -0.376094,-0.546036 -1.105203,-0.133732 -1.926643,-5.374819 -2.840197,-5.680395 -3.3980934,-3.043068 -4.6660388,-0.659331 -3.04306881,0.760767 -1.97799459,1.62297 -0.5071782,0.25359 -2.1808659,-0.963639 -2.0794302,0.05072 -3.2966581,2.282301 -1.521534,4.108143 1.318663,2.840196 2.1301481,2.789481 1.8258412,1.521534 -0.050718,3.803835 1.3186629,-0.05072 -1.2679452,1.87656 -1.0650741,1.62297 -0.7607671,1.521534 z"
       id="path1134"
       sodipodi:nodetypes="cccccsccsccccccccccccccccccccccccccccccscccccccccccccccccccccccc" />
    <path
       id="path278"
       style="fill:#000000;stroke-width:0.999999"
       d="m 12.265625,265.46875 c -5.8105913,-0.1021 -11.5304861,0.78752 -15.1875,2.70508 -1.6541482,0.86736 -4.3578219,2.28511 -6.0078125,3.15039 -1.6500285,0.86528 -2.9999995,2.23108 -3.0000005,3.03516 0,1.15202 0.423938,1.23606 2.0000005,0.39257 1.0999937,-0.5887 2,-1.39988 2,-1.80078 0,-1.49067 8.14435434,-4.18282 15.2050781,-5.02734 7.7276224,-0.92427 16.1350164,0.32217 19.5292974,2.89648 8.499662,6.4464 17.750857,21.32144 23.419921,37.65625 2.554281,7.35999 3.157872,10.95216 3.736329,22.27539 0.784625,15.35777 2.055628,19.31921 6.365234,19.81641 3.229228,0.37259 3.401162,-0.19317 0.880859,-2.89844 -2.00126,-2.14809 -3.136719,-9.58948 -3.136719,-20.53711 10e-7,-4.52349 -0.848562,-8.64822 -2.978515,-14.48437 -3.044258,-8.3415 -3.085437,-10.54193 -0.171875,-9.36914 0.90686,0.36491 5.925387,0.55126 11.15039,0.41406 17.011026,-1.15135 40.754408,-1.29775 50.626958,1.44531 7.99067,0.84012 21.07966,4.41292 31.87304,8.70117 1.1,0.43707 3.34997,1.06742 5,1.40039 5.61812,1.13401 6.70072,2.7384 7.08789,10.5 l 0.35352,7.09766 -8.30274,8.30273 c -4.56646,4.56643 -9.6155,10.05966 -11.2207,12.20704 -1.6052,2.14733 -3.40287,4.3543 -3.99414,4.90429 -0.59123,0.55 -3.37851,3.92502 -6.19531,7.5 -2.81681,3.57502 -7.68562,8.75002 -10.81836,11.5 -3.1327,2.74998 -6.53098,5.78751 -7.55274,6.75 -1.02172,0.9625 -2.16003,1.75 -2.52929,1.75 -0.36919,0 -1.41405,0.67221 -2.32227,1.49414 -0.90822,0.82194 -3.69177,2.10884 -6.18555,2.85938 -4.039232,1.21561 -4.925146,1.17265 -8.123042,-0.38281 -1.974312,-0.96031 -3.8261,-1.50789 -4.115234,-1.21875 -0.289134,0.28913 -0.941149,-0.56343 -1.447266,-1.89453 -2.632554,-6.92421 -5.489098,-11.90349 -6.341797,-11.05079 -0.572712,0.57272 -0.327677,2.37083 0.638672,4.6836 2.73188,6.53832 1.276489,8.5227 -3.445312,4.69922 -2.147793,-1.73919 -2.172118,-1.93097 -0.611329,-4.94922 1.788738,-3.45902 2.237914,-9.73709 0.625,-8.74024 -0.549992,0.33993 -1,1.30916 -1,2.1543 0,2.24001 -3.983397,7.47426 -5.142578,6.75781 -0.617726,-0.38181 -0.495648,-1.23017 0.326172,-2.26172 2.701796,-3.39122 3.859215,-6.30112 4.277344,-10.76172 0.267288,-2.85112 1.113254,-5.11288 2.234375,-5.97265 9.20519,-1.88856 10.82655,-4.39069 16.554687,-8.15235 2.337487,-1.52027 5.825008,-4.17847 7.749998,-5.90624 10.04247,-9.01388 14.60266,-12.31469 18.66992,-13.51563 5.39331,-1.59243 8.6861,-4.58631 3.83008,-3.48242 -12.90597,2.50465 -20.39104,-1.65864 -31.277341,-3.86914 -3.298243,-0.65152 -32.249666,-4.48823 -33.878907,-4.49024 -1.929596,-0.002 -0.245648,4.08584 2.042969,4.95899 3.17144,1.20994 8.904075,7.48521 10.261719,11.23242 1.11806,3.08632 1.814647,10.80859 0.974609,10.80859 -0.207042,0 -2.232207,-1.74895 -4.5,-3.88476 -4.03559,-3.80085 -8.123047,-5.82372 -8.123047,-4.02149 0,0.49852 0.337507,0.90722 0.75,0.90821 1.754306,0.005 7.209023,5.84087 9.345704,9.99804 1.890104,3.67737 2.319626,6.12264 2.357422,13.37696 0.04202,8.12265 -0.144341,9.00324 -2.203126,10.37109 -1.237488,0.8222 -2.25,2.11514 -2.25,2.87305 0,0.75794 -0.450003,1.3789 -1,1.3789 -1.388216,0 -1.31968,-0.23672 1.488282,-5.14843 1.368378,-2.39365 2.459923,-5.70158 2.429687,-7.35157 -0.05004,-2.57677 -0.179789,-2.71783 -0.917969,-1 -0.630383,1.46676 -0.878285,0.59059 -0.929687,-3.2832 -0.06663,-5.00871 -2.207022,-12.2168 -3.626953,-12.2168 -0.360265,0 -0.346325,0.78751 0.03125,1.75 0.37765,0.9625 1.112258,4.22502 1.632812,7.25 0.832706,4.83905 0.672505,6.06889 -1.330078,10.23438 -1.251855,2.60394 -2.690582,4.74244 -3.197265,4.75 -0.506684,0.009 -1.649211,0.67321 -2.539063,1.47851 -1.350501,1.22234 -2.721568,1.2816 -8.298828,0.35743 -3.674797,-0.60896 -6.472671,-1.44563 -6.216797,-1.85938 0.255723,-0.41374 -0.137853,-0.98367 -0.873047,-1.26562 C 43.577787,372.24046 42.168945,366.34665 42,353.69922 c -0.09154,-6.84658 -0.794059,-14.86895 -1.560547,-17.82813 -1.186583,-4.57905 -1.188587,-5.5471 -0.01172,-6.5 1.48063,-1.19886 3.887978,-9.61914 2.75,-9.61914 -0.374475,0 -0.748881,-0.90425 -0.832031,-2.00976 -0.340271,-4.51729 -5.012342,-6.30687 -8.775391,-3.36133 -1.907788,1.49333 -1.853081,1.53574 1.15625,0.91016 3.344958,-0.6954 5.68688,1.00736 2.871094,2.08789 -0.880365,0.33781 -2.255796,2.18289 -3.05664,4.09961 -1.454589,3.48132 -1.158627,5.81712 0.599609,4.73046 0.512013,-0.31642 0.929688,-0.009 0.929687,0.6836 0,0.903 0.305906,0.95191 1.082032,0.17578 0.776088,-0.77613 0.71062,-1.6782 -0.234375,-3.19141 -1.169991,-1.87343 -1.01073,-2.41505 1.419922,-4.8457 l 2.736328,-2.73828 -0.164063,4.1875 c -0.09887,2.52385 -0.564618,3.94167 -1.171875,3.56641 -0.587754,-0.36329 -0.75907,0.022 -0.412109,0.92578 0.327005,0.85209 -0.04785,2.46437 -0.832031,3.58398 -1.224076,1.74747 -1.231706,2.96307 -0.05469,8.57813 0.754091,3.5975 1.387352,11.91845 1.40625,18.49218 0.03742,12.62706 0.513461,15.54557 2.998047,18.375 1.386482,1.5792 1.378074,1.75 -0.08789,1.75 -0.893518,0 -3.21637,-0.89543 -5.162109,-1.98828 -1.945739,-1.09289 -3.758305,-1.99244 -4.029297,-2 -0.270992,-0.004 -1.056644,-0.0178 -1.744141,-0.0254 -3.340758,-0.0409 -3.776537,-1.464 -2.246093,-7.33984 0.822652,-3.15833 1.496093,-6.02773 1.496093,-6.37696 0,-0.34934 -2.622371,2.11211 -5.828124,5.47071 -6.382451,6.68674 -9.739496,8.00627 -17.4277349,6.84765 -3.3960941,-0.51182 -5.5662993,-1.88273 -10.8652343,-6.86328 -7.6269738,-7.16867 -16.8789058,-19.96586 -16.8789068,-23.3457 0,-2.07122 3.380966,-5.10995 5.144532,-4.625 0.353877,0.0973 1.192781,-1.15193 1.865234,-2.77539 0.672491,-1.62346 1.565452,-2.73937 1.984375,-2.48047 0.419074,0.25894 0.703868,-2.5603 0.632813,-6.26367 -0.113046,-5.88038 -0.608425,-7.53908 -3.91211,-13.09571 -4.223357,-7.10343 -4.868551,-11.44682 -2.283203,-15.39257 2.029947,-3.09812 1.419755,-4.77922 -1.462891,-4.02539 -2.427586,0.63484 -3.848777,3.0236 -4.115234,6.91992 -0.288491,4.21965 0.930429,7.16801 5.785156,13.98828 3.774501,5.30275 4.361329,6.81183 4.361328,11.2168 1e-6,4.47375 -0.418771,5.50857 -3.464843,8.55468 -1.974803,1.97481 -5.523487,4.09555 -8.25,4.92969 -4.339729,1.32748 -4.494904,1.47192 -1.667969,1.56641 2.760718,0.0923 3.35298,0.6732 5.183594,5.07812 1.136655,2.73513 3.458462,6.99543 5.160156,9.46875 2.353587,3.42089 2.866559,4.92318 2.140625,6.27735 -0.524863,0.97908 -1.196632,2.56319 -1.492187,3.51953 -0.458268,1.48293 -0.946493,1.57305 -3.322266,0.60742 -3.702047,-1.50471 -13.425183,-1.77476 -15.19336,-0.42188 -1.178414,0.90161 -1.288971,0.42673 -0.675781,-2.92382 1.03646,-5.66306 4.702314,-12.78011 5.94336,-11.53907 0.655407,0.65537 0.474377,1.59329 -0.533203,2.76563 -1.996158,2.32248 -3.015652,5.27344 -1.822266,5.27344 0.518627,0 1.631069,-1.33152 2.472656,-2.95899 0.841588,-1.6275 2.600865,-4.0286 3.908203,-5.33594 1.759862,-1.75986 2.134736,-2.80907 1.445313,-4.04101 -1.377449,-2.46142 -3.224286,-2.04281 -6.710938,1.52344 -3.194003,3.26691 -7.411501,12.82323 -6.929687,15.70312 0.148044,0.88471 -1.749522,3.63435 -4.216797,6.10938 -3.071925,3.08148 -5.338972,6.70658 -7.19336,11.5 -3.837425,9.91933 -4.547225,14.27321 -4.732421,29.01953 -0.148158,11.79715 0.132558,14.09866 2.986328,24.5 1.732308,6.31385 3.759251,13.77693 4.505859,16.58398 0.746608,2.80702 1.85145,10.90704 2.455078,18 0.603666,7.09297 1.986823,16.59593 3.072266,21.11719 3.790942,15.79053 4.369435,23.17824 2.927734,37.31836 -1.059855,10.3937 -1.086286,15.52066 -0.130859,25.7207 1.302614,13.90651 1.917659,17.03484 13.212891,67.24024 4.277173,19.01136 4.885163,24.01704 3.457031,28.44921 -7.673462,23.815 -7.609877,23.55419 -6.533203,27.55274 1.934176,4.33989 5.416391,7.35623 6.941406,11.24023 1.32737,3.4416 3.145671,7.15778 4.042969,8.25782 2.222022,2.72398 4.013672,7.12238 4.013671,9.85547 0,1.24395 0.675005,3.1354 1.5000005,4.20312 1.484863,1.92147 1.5151748,1.92147 3,0 2.1381921,-2.7668 1.9336996,-11.78099 -0.3710937,-16.34961 -2.5685292,-5.09178 -3.4466608,-8.20898 -2.3125,-8.20898 1.2710547,0 6.1835937,10.15125 6.1835937,12.77734 0,1.14338 0.5985884,2.67668 1.3300781,3.4082 0.73145207,0.73149 1.6180099,3.09919 1.96875002,5.26172 1.18529768,7.3039 7.43055338,10.35534 13.48437538,6.58594 1.805971,-1.12449 3.568235,-2.82978 3.914062,-3.78906 0.346054,-0.9594 1.456668,-2.94035 2.46875,-4.40235 l 1.839844,-2.6582 5.044922,2.43164 c 2.774097,1.33829 7.609199,3.14248 10.746094,4.00977 16.011284,4.4265 17.259903,4.57478 32.703124,3.88086 27.579629,-1.23927 46.36257,-0.97627 58,0.81054 6.05001,0.92897 13.47498,1.92288 16.5,2.20899 3.02499,0.28622 10.225,1.62126 16,2.96484 27.12718,6.31158 38.96431,8.696 44.65821,8.99609 12.05635,1.37834 24.26121,3.43389 35.65234,3.81836 0.0545,-0.0267 0.10674,-0.054 0.14258,-0.0898 8.21575,0.72284 15.45644,0.66869 23.13672,0.87695 l 7.82812,-0.25195 c 0,0 8.88783,0.10959 13.13281,-1.01172 6.05121,-2.30799 13.27797,-5.02365 18.0625,-9.16015 6.83142,-5.74821 11.5777,-20.77346 10.97657,-34.75586 -0.32153,-7.47871 -3.68289,-14.83336 -9.25391,-20.25196 -9.41703,-7.37009 -17.39037,-15.07448 -29.83789,-22.68164 -3.25284,-3.14565 -7.48735,-4.60081 -10.76953,-6.6914 -9.09562,-5.83284 -35.68272,-18.41427 -44.98047,-21.28516 -5.98145,-2.89882 -10.04351,-3.32779 -17.75,-6.2832 -1.38871,-0.53964 -5.87315,-1.94142 -20,-6.25 -3.02498,-0.92259 -6.17501,-1.80976 -7,-1.97266 -1.82495,-0.3603 -13.99485,-4.10873 -19.5,-6.00586 -2.19999,-0.75813 -6.47498,-2.02722 -9.5,-2.82031 -3.02498,-0.7931 -6.28751,-1.76744 -7.25,-2.16406 -0.9625,-0.39659 -1.75,-0.32027 -1.75,0.16796 0,0.48828 1.46247,1.46119 3.25,2.16407 6.84091,2.68996 22.56361,8.07843 29.75,10.19531 7.52836,2.21767 17.06593,5.88165 18,6.91406 17.94478,8.05898 46.06142,13.80103 59.75,25.22852 0.96253,0.81721 4.00002,2.73721 6.75,4.26758 5.27085,2.93314 23.64681,14.63483 24.5,15.60156 0.275,0.31158 2.73752,2.25552 5.47266,4.32031 15.95947,12.04804 29.09647,29.16801 27.95312,36.42969 -0.23414,1.4869 -0.67584,4.18763 -0.98047,6.00195 -0.73583,4.3804 -5.42428,12.73463 -9.46875,16.8711 -5.72529,4.94346 -15.85345,7.99381 -23.97656,8.96679 -8.28828,1.38263 -15.74587,0.17703 -26.37627,0.0656 -25.40202,-0.25187 -53.1907,-3.98696 -80.12373,-9.79024 -7.15,-1.54061 -15.47498,-3.06634 -18.5,-3.39062 -3.02498,-0.32432 -7.97502,-1.03795 -11,-1.58594 -3.02502,-0.54811 -10.00003,-1.43682 -15.5,-1.97461 -5.50001,-0.53771 -11.34997,-1.31094 -13,-1.71875 -1.64999,-0.4038 -14.752793,-0.58987 -29.11719,-0.4043 -24.975421,0.32293 -26.702142,0.22169 -39.5,-2.32031 -12.967937,-2.57578 -19.367512,-4.36292 -18.548828,-5.18164 0.48102,-0.48098 2.4673,-0.86574 9.666015,-1.86523 3.024983,-0.41998 6.400007,-0.89526 7.5,-1.05664 7.75457,-1.137 26.349963,-8.56082 30.554688,-12.19922 6.60325,-5.71401 9.041782,-8.46684 8.761719,-9.88477 -0.251906,-1.27502 -0.975609,-0.98719 -3.53125,1.40235 -3.157586,6.52027 -9.530876,7.94396 -16.097657,11.93945 -7.176393,3.08155 -16.266424,6.07581 -21.701171,6.83789 -2.192353,0.2335 -6.461308,0.87771 -9.486329,1.43164 -3.024982,0.55378 -7.187511,1.29259 -9.25,1.64258 -2.062526,0.34979 -3.75,1.00448 -3.75,1.45508 0,0.45048 -0.596937,1.41725 -1.328125,2.14843 -0.731225,0.73119 -1.968696,2.66347 -2.75,4.29297 -2.034784,4.24377 -5.5229765,5.77879 -9.0195309,3.9707 -3.5862041,-1.85446 -4.3153826,-5.57508 -2.5664062,-13.07226 1.7909289,-7.6769 3.2558925,-10.37695 5.6289062,-10.37695 1.9803969,0 4.5582009,-2.06702 5.2792969,-4.23243 0.294803,-0.88531 4.16957,-1.45915 12.839844,-1.90234 18.632579,-0.95248 18.827532,-1.00042 22.55664,-5.31445 4.961726,-5.73982 2.740553,-8.06747 -8.640625,-9.05664 -1.924989,-0.16729 -8.112494,-0.87186 -13.75,-1.56446 -8.435754,-1.03642 -10.25,-1.55592 -10.25,-2.93945 0,-2.38307 3.597176,-5.36035 5.564453,-4.60547 3.314646,1.27196 23.21801,1.88717 26.300782,0.8125 2.79583,-0.97462 3.644872,-0.67911 9.716797,3.39258 13.960634,10.35655 22.643078,9.57873 34.578125,13.84762 6.559445,3.03065 11.898116,4.82835 25.839846,8.70312 1.92499,0.53511 4.95103,1.13317 6.72461,1.33008 1.77358,0.19669 4.47356,0.61964 6,0.9375 1.52644,0.31808 7.50038,0.80499 13.27539,1.08203 5.775,0.277 13.19998,0.72189 16.5,0.99024 3.29998,0.26845 13.85437,0.76323 23.45312,1.0996 9.59876,0.33619 18.23525,0.76283 19.19336,0.94727 0.95811,0.18463 4.80574,0.64697 8.54883,1.02734 18.11509,1.8409 35.87722,6.08385 47.80469,11.41797 6.31457,2.82399 8.5,3.31951 8.5,1.92774 0,-0.67907 -0.27457,-0.95981 -0.61133,-0.62305 -0.3366,0.33657 -2.92408,-0.67966 -5.75,-2.25977 -4.9127,-2.74707 -15.90893,-6.90618 -20.13867,-7.61718 -2.7936,-0.46961 -6,-1.21784 -6,-1.40039 0,-0.29851 -17.53303,-3.57433 -23.5,-4.39063 -4.70154,-0.64331 -48.31718,-4.34362 -59.76367,-5.07031 -13.32053,-0.84571 -30.40298,-2.93931 -37.23633,-4.5625 -8.31042,-3.08253 -21.176602,-4.33031 -26.738284,-9.4375 -1.506898,-1.39725 -3.03346,-2.53906 -3.390625,-2.53906 -0.357052,0 -1.41831,-2.84567 -2.359375,-6.32227 -2.102357,-10.10382 -1.029455,-18.38469 0.814453,-27.67773 0.268762,-1.375 1.562042,-5.43949 2.873047,-9.03125 2.032177,-5.56751 4.057611,-9.48957 11.326172,-21.94141 2.044382,-3.50219 13.147452,-13.6442 16.873052,-15.41211 3.71709,-1.76406 3.98312,-1.75982 9.96093,0.19922 10.87287,3.56322 10.33217,3.54096 11.13086,0.46484 0.67979,-2.61173 0.68773,-15.48024 0.0156,-23.27929 -0.99398,-11.53399 -3.2213,-19.99472 -8.31055,-31.57032 -2.15954,-4.91187 -4.46734,-11.4047 -5.1289,-14.42968 -1.4617,-6.67975 -1.4483,-28.99204 0.0254,-42.07227 1.03396,-9.17783 0.97024,-9.89703 -1.57618,-17.5 -2.58844,-7.72845 -5.93744,-12.90258 -7.66015,-11.83789 -0.47006,0.29049 -0.85352,-0.14275 -0.85352,-0.96094 0,-0.81819 -0.71758,-2.20391 -1.59375,-3.08008 -1.45738,-1.45742 -1.28045,-1.9094 2.07422,-5.32031 4.55324,-4.6295 6.31456,-7.82784 9.21289,-16.72851 1.7081,-5.33752 3.54283,-14.27898 -1.63672,-17.01368 -1.06858,-0.54292 -4.89361,-2.48701 -8.5,-4.32031 -3.60642,-1.8333 -6.55664,-3.72694 -6.55664,-4.20898 0,-0.48201 1.91248,-2.56898 4.25,-4.63672 16.70544,-14.14897 31.08214,-34.65612 44.40235,-47.79102 7.74935,-7.6165 8.6554,-9.40614 8.49023,-16.73242 -0.18807,-8.34841 -1.93664,-10.3569 -11.6543,-13.38672 -5.5575,-2.9239 -9.78473,-3.44391 -14.14257,-5.36718 -8.94138,-2.87578 -19.43968,-6.40352 -28.09766,-6.62305 -12.146876,-1.42398 -25.416524,0.1238 -38.759768,0.32228 -7.430816,0.0704 -14.436681,0.42144 -15.570313,0.78125 -3.849581,0.26158 -6.518642,-5.09464 -7.917969,-7.60156 0,-1.80786 -7.667118,-14.16139 -11.636718,-18.75 -2.05852,-2.37956 -5.404366,-5.17374 -7.433594,-6.20898 -4.022494,-2.05212 -9.923783,-3.14595 -15.734375,-3.24805 z m -38.044922,4.71875 c -0.561868,-0.003 -1.083168,0.0399 -1.541015,0.13867 -8.439875,1.82024 -16.703774,9.20465 -18.603516,16.6211 -0.606765,2.36866 -1.294525,4.87361 -1.527344,5.5664 -0.880214,2.6216 1.674925,11.89588 4.613281,16.74414 1.680907,2.77346 5.226926,6.60755 7.878907,8.51953 2.651981,1.91203 5.569061,4.71407 6.482422,6.22657 2.025142,3.35357 2.546875,3.44245 2.546874,0.4375 10e-7,-2.32615 -1.2625,-4.00643 -6.599609,-8.78125 -14.489159,-12.96265 -13.876991,-30.63391 1.388672,-40.08204 2.190161,-1.35548 4.443808,-1.90011 6.75,-1.63085 3.528247,-0.47316 8.279094,2.77965 8.460937,0.38277 1e-6,-1.81764 -5.916534,-4.12349 -9.849609,-4.14258 z m 43.625,14.56445 c -0.06087,0.008 -0.113806,0.0309 -0.154297,0.0742 -0.219741,0.23498 0.113816,3.13617 0.740235,6.44727 0.957203,5.0595 1.43936,5.96188 3.017578,5.65234 1.583811,-0.31049 1.805308,0.11787 1.421875,2.73047 -0.24994,1.70385 -0.08171,3.15387 0.373047,3.22266 0.454752,0.0684 1.239989,0.18121 1.74414,0.25 1.695647,0.23123 2.231359,1.42053 2.607422,5.7832 0.205795,2.38772 0.399325,4.45422 0.425781,4.5918 h -0.002 c 0.02763,0.13719 0.449651,0.25 0.935547,0.25 1.378658,0 1.919247,-4.60445 1.080078,-9.19336 -0.419527,-2.29342 -0.534032,-4.76314 -0.255859,-5.48828 0.278249,-0.72511 -0.04129,-1.31836 -0.708985,-1.31836 -0.668329,0 -0.971718,-0.63113 -0.675781,-1.40235 0.752655,-1.96131 -0.378315,-2.7981 -1.982422,-1.46679 -1.029052,0.8539 -1.341796,0.73606 -1.341797,-0.50782 0,-0.89234 -0.41872,-1.62304 -0.93164,-1.62304 -0.512958,0 -1.243696,-0.97859 -1.623047,-2.17383 -0.701823,-2.2112 -3.756871,-5.94118 -4.669922,-5.82813 z m -20.5859374,2.00196 c -0.8144504,0 -5.1894531,5.4449 -5.1894531,6.45898 0,1.32869 2.3471981,0.34012 4.0566406,-1.70898 1.9565105,-2.34531 2.530633,-4.75 1.1328125,-4.75 z m -10.1855466,1.5 0.61914,4.21093 c 0.481966,3.27466 0.149134,5.01215 -1.501953,7.81055 -2.175156,3.6864 -1.347833,3.73438 2.628906,0.1543 2.7984025,-2.51932 2.9053693,-6.67953 0.251954,-9.81446 z m 37.507812,9.3457 c 0.05467,0.0314 0.114805,0.16367 0.177735,0.4043 0.251716,0.96249 0.251716,2.5375 0,3.5 -0.251339,0.96249 -0.457032,0.17499 -0.457032,-1.75 0,-1.44375 0.115278,-2.24863 0.279297,-2.1543 z m -18.253906,0.39453 c -4.9015553,0.0628 -6.09137749,0.45866 -8.0058594,2.66602 -1.2368504,1.42605 -2.2493575,3.18238 -2.25,3.90234 -0.00129,1.37582 0.6915864,1.11235 5.1113282,-1.94336 1.4370515,-0.99364 2.8996377,-1.52028 3.25,-1.16992 0.3502484,0.35044 0.6367187,0.0615 0.6367187,-0.64258 0,-1.19097 2.673226,-1.17325 6.8749995,0.0469 0.756246,0.21959 1.605522,-0.23463 1.886719,-1.00977 0.359244,-0.99012 0.01012,-1.21681 -1.175781,-0.76172 -0.928706,0.35618 -1.438513,0.24198 -1.130859,-0.25586 0.310941,-0.5029 -1.9971022,-0.87285 -5.197266,-0.83203 z m 6.378906,10.78125 c -0.390571,0.0322 -0.637254,0.26872 -0.638672,0.72852 -0.0017,0.41253 -2.016657,0.76027 -4.4765621,0.77539 -2.4719622,0.0143 -5.0418166,0.6385 -5.7460938,1.39648 -1.04352737,1.12309 -0.99979072,1.27784 0.2402344,0.84766 0.939137,-0.3258 2.4585575,0.74631 4,2.82422 1.3670929,1.84286 2.793103,3.36378 3.1699219,3.3789 1.9988036,0.0804 5.8144526,-2.11315 5.8144526,-3.34179 1e-6,-0.77976 0.675009,-1.67547 1.5,-1.99219 0.824996,-0.31658 1.5,-1.11452 1.5,-1.77344 0,-0.65877 -0.278605,-0.92061 -0.61914,-0.58008 -0.340498,0.3405 -1.271509,-0.0352 -2.070313,-0.83398 -0.97337,-0.9734 -2.022876,-1.48344 -2.673828,-1.42969 z m -9.5781248,4.97852 c -0.5175303,0 -1.2188142,0.45 -1.5585937,1 -0.3399307,0.54999 0.083945,1 0.9414063,1 0.857461,0 1.5585937,-0.45001 1.5585937,-1 0,-0.55 -0.4238755,-1 -0.9414063,-1 z m 60.6191408,10.01367 c 1.017356,-0.011 3.034049,0.31885 5.322265,0.92773 1.924989,0.51224 5.840422,1.16784 8.699219,1.45508 5.804183,0.58311 14.816609,2.76926 23.712889,5.75195 3.25111,1.09002 7.63864,2.00297 9.75,2.03321 2.1114,0.0291 3.83789,0.25433 3.83789,0.5 0,0.60351 -5.19575,4.98915 -11.40234,9.62304 -4.066003,3.99711 -9.778005,6.73338 -13.916017,9.47461 -2.299124,1.52935 -5.53165,3.42088 -7.181641,4.20313 -1.649986,0.78225 -3.273756,1.54482 -3.609374,1.69336 -2.263975,1.00104 -2.471592,-4.04 -0.373047,-9.0625 0.864831,-2.07009 1.255983,-4.80984 0.910156,-6.37305 -0.753643,-3.12768 -5.647047,-14.29001 -8.451172,-15.06641 -0.811654,-0.17865 -2.524814,-1.30366 -3.806641,-2.5 -1.281826,-1.19629 -2.631874,-2.09965 -3,-2.00781 -0.368201,0.0918 -0.856898,-0.021 -1.085937,-0.25 -0.267038,-0.26705 -0.01666,-0.39576 0.59375,-0.40234 z M -1.84375,334.26562 c -0.1954577,0.01 -0.4194053,0.0621 -0.6699219,0.15821 -1.2750616,0.48937 -1.3239529,0.77235 -0.25,1.45312 1.77600003,1.12589 1.8339844,1.10794 1.8339844,-0.59179 0,-0.69693 -0.3276895,-1.04925 -0.9140625,-1.01954 z m -7.8535156,0.57032 c -0.2077985,-0.0335 -0.4038674,0.36492 -0.7324224,1.16992 -0.393444,0.96374 -0.432583,2.87622 -0.08789,4.25 0.815357,3.24865 1.7134014,3.14431 3.7499999,-0.43555 1.3965354,-2.45507 1.4365449,-3.00757 0.25,-3.46289 -0.7763528,-0.29794 -1.4438707,0.008 -1.4824219,0.67774 -0.038665,0.67026 -0.4402443,0.31878 -0.8925781,-0.78125 -0.3778016,-0.91892 -0.5968891,-1.38447 -0.8046875,-1.41797 z m 15.9355468,0.0332 c -0.2111145,-0.0255 -0.1818985,0.27299 0.00977,0.88477 0.2584819,0.82499 1.6720895,2.08486 3.140625,2.80078 1.5038738,0.73315 2.9581718,2.48017 3.3300778,4 0.363061,1.48407 1.153025,3.02377 1.755859,3.42187 0.67869,0.44818 1.218851,-0.24983 1.419922,-1.83398 0.473046,-3.72858 -0.313113,-5.04434 -3.492187,-5.83789 -1.556939,-0.38861 -3.6856683,-1.45924 -4.7285156,-2.37891 -0.7733669,-0.68188 -1.2244319,-1.03117 -1.4355469,-1.05664 z m 0.7949219,7.94336 c -1.7510976,-10e-4 -3.7622044,0.47829 -5.5976562,1.43555 -1.57538274,0.82159 -3.7652029,1.50233 -4.8652344,1.51367 -2.7369073,0.0294 -4.0721784,1.08359 -4.7441406,3.74219 v 0.002 c -0.6571843,2.60031 1.6640566,3.20502 2.6308593,0.68555 0.3299528,-0.8597 1.048163,-1.28554 1.5957032,-0.94727 0.5475781,0.33842 3.08159362,-0.30897 5.6328125,-1.4375 2.5512939,-1.12853 5.9873073,-2.05078 7.6347656,-2.05078 2.5491025,0 2.8094775,-0.22347 1.7499995,-1.5 -0.795832,-0.95964 -2.2860113,-1.44207 -4.0371089,-1.44336 z m 2.8535157,5.10742 c -0.3290014,0.0171 -0.74476,0.10023 -1.2714844,0.23242 -1.3507276,0.33903 -3.7132443,1.13836 -5.25,1.77539 -3.37054483,1.3973 -3.86214048,1.54092 -5.8261719,1.70118 -2.1388726,0.17461 -2.9044515,2.74182 -1.3222656,4.43554 0.9881576,1.05782 2.0821552,1.18071 4.3378906,0.48633 1.6588346,-0.51061 3.4656281,-1.04948 4.015625,-1.19726 3.9952626,-1.07381 6.4999995,-3.14259 6.4999995,-5.36914 0,-1.57491 -0.196589,-2.11586 -1.1835932,-2.06446 z m -20.8164068,11.83399 c 0.549997,0 0.9919346,0.3375 0.9843755,0.75 -0.00843,0.41249 -0.4512345,1.425 -0.9843755,2.25 -0.783983,1.21296 -0.97304,1.06946 -0.984374,-0.75 -0.0084,-1.2375 0.434382,-2.25 0.984374,-2.25 z m 3.4746099,3.43554 c 0.2330551,0 0.8387112,0.42634 2.0136719,1.28125 1.3472877,0.98034 2.4615711,2.12071 2.4804687,2.53321 0.085455,2.03939 -3.3314781,0.0127 -4.2714844,-2.53321 -0.3156472,-0.85491 -0.4557113,-1.28125 -0.2226562,-1.28125 z m -17.9023439,2.94141 c 0.848213,-0.004 1.742457,0.0169 2.691406,0.0625 7.515742,0.3611 20.4001128,3.03662 22.32812538,4.63672 0.60929759,0.50566 4.19220712,1.14805 7.96289062,1.42773 9.405203,0.69763 17.512362,3.14165 21.380859,6.44336 l 3.244141,2.76758 -3.060547,5.42383 c -3.032504,5.37331 -6.935707,18.39695 -9.849609,32.86328 -1.072441,5.32411 -1.561957,14.81329 -1.685547,32.71094 -0.09581,13.86667 -0.417395,25.45645 -0.714844,25.7539 -0.297411,0.29741 -3.573168,-3.28629 -7.2792968,-7.96289 -3.7061287,-4.67663 -7.4716288,-8.50195 -8.3671874,-8.50195 -1.15740493,0 -0.59339486,1.08434 1.9511718,3.75 1.9688313,2.06249 4.8791308,5.58195 6.4667969,7.82226 1.5876285,2.24036 5.6744095,7.4154 9.0820315,11.5 5.747527,6.8894 22.320542,27.15159 24.070312,29.42774 1.747616,2.27331 6.28001,12.85734 7.185547,16.78125 1.874041,8.12073 1.145799,13.78414 -4.080078,31.71875 -6.725707,23.08169 -7.601139,26.87712 -9.425781,40.90234 -1.416265,10.88727 -1.406847,12.49455 0.101562,19.23828 1.838514,8.21965 7.272028,22.96258 8.88086,24.09375 1.561285,1.09777 -0.917403,0.91202 -10.455079,-0.78125 -9.57078,-1.69916 -12.1137,-1.0675 -14.533203,3.61133 -1.060006,2.04964 -1.095942,2.90664 -0.164062,3.84571 0.93377,0.94095 0.842009,1.07279 -0.412109,0.5957 -2.613922,-0.99447 -8.05884,4.22634 -7.69336,7.37695 0.28097,2.42207 0.784824,2.67852 6.802734,3.43945 13.897475,1.75733 18.5,3.04701 18.5,5.1875 0,1.0941 -0.562503,1.87781 -1.25,1.74024 -0.687492,-0.1375 -1.25,0.425 -1.25,1.25 0,1.73015 -2.960801,1.94527 -7.77539,0.56445 -2.297537,-0.65884 -3.064452,-0.61704 -2.59375,0.14453 0.447874,0.72477 -0.183543,0.86936 -1.91211,0.43555 -2.862572,-0.71849 -7.072686,0.56679 -9.365234,2.85938 -2.312088,2.31212 -3.076994,1.88688 -6.7597655,-3.75391 l -3.4277344,-5.25 1.1132813,-13.30859 c 0.992126,-11.85204 0.9333769,-13.65644 -0.546875,-16.5 -1.8528295,-3.1938 -2.1779979,-6.88214 -3.61914065,-10.19141 -2.26431495,-3.70118 -2.93657005,-14.56852 -2.34960935,-38 0.6607748,-26.37222 0.7290936,-41.85389 0.2558594,-57.5 -0.1577197,-5.22501 -0.228817,-11.52166 -0.15625,-13.99219 0.072491,-2.47056 -0.3444399,-5.93769 -0.9277344,-7.70508 -0.5832945,-1.76742 -1.1452438,-6.15555 -1.2480469,-9.75 -0.1029543,-3.59444 -0.5742829,-6.54114 -1.046875,-6.54492 -0.4728189,-0.005 -0.6215427,5.61719 -0.3320313,12.49219 0.3259843,7.74255 0.1573844,12.5 -0.4414062,12.5 -0.8942362,0 -0.44276,8.51293 0.7949219,15 0.8099905,4.24554 2.149636,17.47092 1.8242187,18.00976 -0.1692472,0.28052 -0.5640082,13.305 -0.8769531,28.94336 -0.508422,25.40576 -0.3588807,29.61097 1.390625,39.49024 1.0769008,6.08111 2.82971275,13.53162 3.89648438,16.55664 1.76375432,5.00152 1.84796042,6.61364 0.92382812,17.78906 L 0.875,667.83398 l 3.3085938,5.46094 c 1.8201444,3.00321 4.1137318,5.71516 5.0976562,6.02735 0.983962,0.3123 1.789062,1.43708 1.789062,2.5 0,3.39201 -3.5292299,2.15956 -8.507812,-2.97266 -4.761713,-4.90885 -9.7405917,-6.82528 -12.755859,-4.91016 -0.736404,0.46783 0.179451,0.7914 2.2636715,0.80274 l 3.5,0.0137 -3.5,1.75195 c -3.2158485,1.60989 -3.4850995,2.08984 -3.3203125,5.90039 0.09872,2.2808 1.13815,6.37298 2.3085938,9.09375 v 0.002 c 1.4935933,3.47221 2.0361235,6.51022 1.8203124,10.1914 -0.1691334,2.88439 -0.6460961,4.90168 -1.0585937,4.48438 -0.4124598,-0.4173 -0.75,-1.4518 -0.75,-2.29883 0,-1.40549 -6.5541325,-15.56866 -12.6855465,-27.41211 -2.673449,-5.1642 -2.592529,-9.97697 0.271484,-16.21289 0.757795,-1.64999 2.235581,-6.45875 3.285156,-10.68555 2.124699,-8.55643 2.35471,-6.57586 -4.326172,-37.31445 -9.822878,-45.19506 -10.82651,-52.89026 -10.638672,-81.5 0.08134,-12.37501 -0.29312,-24.52498 -0.830078,-27 -0.536919,-2.47499 -1.716644,-7.87499 -2.623046,-12 -0.906407,-4.12498 -2.060895,-12.225 -2.566407,-18 -1.849701,-21.13202 -2.860545,-26.28457 -8.720703,-44.5 -2.213896,-6.88158 -2.101204,-28.55805 0.195313,-37.5 0.918122,-3.57502 1.859292,-7.26993 2.089843,-8.20898 1.00509,-4.09633 4.68215,-11.08709 6.773438,-12.87696 3.767268,-3.22428 7.410163,-4.51175 13.347656,-4.53906 z m 51.486328,7.66797 c 1.407383,-0.0248 3.382902,0.55556 4.388672,1.29101 1.005921,0.73546 1.576807,1.97297 1.269531,2.75 -0.401763,1.01601 -0.580025,0.90642 -0.636718,-0.39453 -0.04343,-0.99496 -0.417581,-1.62155 -0.830079,-1.39062 -0.412493,0.23093 -2.099971,-0.17087 -3.75,-0.89453 -2.970893,-1.30303 -2.975466,-1.31673 -0.441406,-1.36133 z m 7.771485,3.1914 c 0.204477,-0.0136 0.452293,0.0413 0.751953,0.15625 0.869971,0.33374 1.769827,0.60743 2,0.60743 0.229984,0 0.417968,0.94049 0.417968,2.08984 0,2.00833 0.326467,2.06287 8.34961,1.39453 13.590349,-1.13208 23.7633,2.06695 31.996094,10.0625 2.009688,1.95179 3.654298,4.40034 3.654296,5.44141 0,1.04107 0.450008,2.17194 1,2.51172 1.671005,1.03275 1.162547,9.8212 -0.724609,12.52734 -8.180107,11.73033 -18.040227,16.96994 -32.533203,17.28516 -11.820548,0.25712 -13.317542,2.04216 -3.060547,3.65039 4.300044,0.67419 9.393375,1.35001 11.318359,1.50195 25.965619,2.05164 25.894876,2.06518 26.914063,-5.57227 0.733455,-5.49618 2.215299,-5.39463 3.826172,0.25977 0.681298,2.39146 1.686721,5.24766 2.234375,6.34766 0.547653,1.09999 1.19246,4.24997 1.433594,7 0.241133,2.74998 0.749618,6.125 1.130859,7.5 0.381128,1.37499 0.670861,5.32463 0.640625,8.77734 -0.0294,3.45271 0.577011,7.78649 1.347656,9.63086 1.721008,4.11938 1.758232,14.54356 0.05469,15.19727 -0.822123,0.31547 -1.139653,2.82356 -0.994141,7.83593 0.184139,6.34666 0.68195,8.17023 3.583985,13.13672 1.853627,3.1722 3.81392,5.91662 4.35742,6.09766 0.56447,0.18814 1.07411,-2.25939 1.1875,-5.70703 0.13875,-4.21089 -0.13738,-5.82645 -0.91211,-5.34766 -1.34835,0.83331 -0.47596,-11.35021 0.91211,-12.73828 0.51379,-0.51383 2.5089,2.6817 4.75391,7.61523 3.27013,3.82415 4.14759,9.11544 6.3496,12.66797 3.9674,6.58445 7.9676,15.02005 9.69336,21.89453 5.15112,12.01309 8.28052,23.72279 8.56055,35.51953 0.10137,4.9053 0.60587,12.00165 1.12109,15.76954 0.51364,3.76788 0.73748,7.05158 0.49219,7.29687 -0.24521,0.24522 -2.40719,-0.57558 -4.80273,-1.82422 -2.39554,-1.2486 -5.7111,-2.35057 -7.36914,-2.44922 -3.83543,-0.22798 -12.16453,3.74847 -17.1543,8.18946 -5.775832,2.65537 -7.135942,7.49605 -10.8457,11.84179 -5.107053,8.60862 -11.061997,17.2239 -13.59961,27.31836 -0.599735,2.62745 -1.499843,6.15863 -2.001953,7.84766 -1.377872,10.83033 -0.01815,16.62548 2.373047,25.41406 0.289927,1.10857 0.230085,1.99521 -0.13086,1.96875 -3.025658,-0.21528 -21.961694,-12.83062 -23.035156,-15.3457 -0.209272,-0.4904 -1.838605,-2.51537 -3.61914,-4.5 -6.848974,-8.88881 -12.346453,-26.23917 -12.875,-36.98242 -0.524863,-14.84826 1.018263,-24.14327 8.507812,-51.20118 2.712416,-9.79921 4.875507,-19.75462 4.890625,-22.5 0.02389,-4.93054 1.30912,-12.09037 2.359375,-13.14062 0.529285,-0.52925 5.50447,0.38186 13.865234,2.53906 4.650256,1.19985 5.14652,-0.62632 1,-3.67969 l -2.75,-2.02539 4,0.36329 c 2.199988,0.20016 6.024981,1.28931 8.5,2.41992 5.677607,2.59358 10.280786,2.79141 9.824219,0.42187 -0.329121,-1.70819 -3.572988,-2.99351 -9.777343,-3.87305 -1.899326,-0.26921 -3.713774,-0.90985 -4.03125,-1.42382 -0.317632,-0.51394 -1.461861,-0.9457 -2.544922,-0.95703 -1.083062,-0.0121 -4.558184,-0.31194 -7.720704,-0.66797 -3.973073,-0.44735 -5.749999,-0.30194 -5.75,0.47461 0,0.6181 0.562508,1.13918 1.25,1.15429 0.687497,0.0167 0.435359,0.5047 -0.560546,1.08399 -2.281966,1.32737 -5.114397,0.3702 -4.017578,-1.35742 1.362704,-2.14644 0.9865,-3.13743 -2.632813,-6.93555 -2.385713,-2.50379 -3.747312,-3.3027 -4.257813,-2.5 -0.543416,0.8547 -0.75429,0.80192 -0.765624,-0.18945 -0.01822,-1.62993 -5.980252,-7.09256 -7.765626,-7.11524 -0.687492,-0.009 -1.25,-0.6645 -1.25,-1.45703 0,-2.01876 -2.061973,-3.07452 -3.009765,-1.54102 -1.080794,1.74879 -3.990234,0.46027 -3.990235,-1.76757 10e-7,-1.26221 -0.835707,-1.87623 -2.75,-2.01758 -1.925325,-0.14219 -4.219689,-1.83986 -7.654296,-5.66406 l -4.90625,-5.46289 0.18164,-19.80274 c 0.09989,-10.89162 0.40939,-22.27775 0.689453,-25.30273 0.280063,-3.02502 0.669455,-7.52498 0.865235,-10 0.389102,-4.91758 2.019478,-12.51645 3.470703,-16.17579 0.506986,-1.2783 1.672187,-5.02419 2.587891,-8.32421 1.758005,-6.33544 6.414114,-16.77099 7.734374,-17.33399 0.429808,-0.18334 0.781251,-1.22194 0.78125,-2.30859 10e-7,-1.08665 -0.450003,-1.6972 -1,-1.35742 -0.571158,0.353 -0.999999,-0.52614 -1,-2.04883 0,-1.51506 0.216647,-2.17388 0.830079,-2.21485 z m 50.970703,13.77735 c 1.675162,0.0349 9.870146,3.29102 16.367186,6.50195 3.87806,1.9166 7.5024,3.48438 8.05274,3.48438 1.32892,0 10.77929,6.14723 10.77929,7.01171 0,2.87721 -10.87093,9.98646 -15.27929,9.99024 -1.22057,0.001 -3.76582,1.32345 -5.654301,2.9375 -2.610331,2.23083 -3.852671,2.70838 -5.183594,1.99609 -6.063723,-3.24521 -2.826884,1.15924 12.558595,17.08594 2.71752,2.81314 4.87074,7.66518 4.01562,9.04883 -0.30701,0.4967 0.36415,1.89466 1.49219,3.10547 1.84471,1.98005 2.20204,3.46989 2.47266,10.32422 0.0434,1.09999 0.36731,2.45 0.7207,3 0.35331,0.54999 0.29274,2.80001 -0.13477,5 -0.42746,2.19995 -0.82946,3.11955 -0.89257,2.04492 -0.0632,-1.07463 -2.08035,-6.02463 -4.48243,-11 -2.40203,-4.97537 -5.13832,-10.84494 -6.08203,-13.04492 -0.94367,-2.20003 -2.12449,-4.67501 -2.62304,-5.5 -0.49856,-0.825 -2.75242,-4.76249 -5.007816,-8.75 -2.255395,-3.98748 -4.396931,-7.25404 -4.759765,-7.25782 -0.362797,-0.004 -1.783929,-1.69125 -3.158203,-3.75 -1.374274,-2.05874 -3.061786,-4.33765 -3.75,-5.06445 -1.669267,-1.76281 -1.576214,-4.15524 0.33789,-8.73633 0.873449,-2.09091 1.413204,-5.28789 1.201172,-7.10547 -0.212183,-1.81753 0.02021,-3.44034 0.515625,-3.60546 0.495458,-0.16517 0.201489,-1.97212 -0.652344,-4.01563 -0.85387,-2.04355 -1.237931,-3.70873 -0.853515,-3.70117 z m -85.14648462,26.81836 c -0.40683067,0.08 -1.19471838,0.85534 -2.35937498,2.49218 -2.4993262,3.5127 -2.7615371,3.64479 -3.4667969,1.73829 -1.2938835,-3.49773 -1.5985038,-2.31205 -0.9492187,3.6875 0.6107712,5.64207 0.7430582,20.80931 0.2167968,24.75 -0.1466456,1.09999 -0.2492396,9.87498 -0.2265625,19.5 0.049965,21.52996 -0.056986,23.16892 -1.6191406,24.82031 -1.7319425,3.43308 -2.3099465,7.48494 -3.6953125,10.65039 -1.308374,4.88498 -5.417982,11.47289 -3.683594,16.5293 0.392807,0.97666 0.720997,0.51868 0.939453,-1.3125 0.277985,-2.33129 0.58367,-2.60617 1.78711,-1.60743 0.798425,0.66278 1.778503,0.85446 2.177734,0.42579 0.399194,-0.42868 0.218948,-0.96136 -0.398437,-1.1836 -2.141216,-0.77049 0.516731,-14.23103 4.7031246,-23.82226 1.1721827,-2.68558 1.8776089,-13.11247 2.0136719,-29.74024 0.061757,-7.55679 0.4935734,-15.4286 0.9589844,-17.49219 0.5096695,-2.25981 0.410397,-6.55503 -0.25,-10.80273 -1.0532032,-6.77439 -0.9921225,-7.24014 1.5507812,-11.79492 2.20729136,-3.95379 3.01895803,-6.61067 2.4511719,-6.83008 -0.042584,-0.0165 -0.092272,-0.019 -0.15039062,-0.008 z m -1.71289058,42.16797 c -0.5823119,0 -0.7811858,0.45 -0.4414063,1 0.3398929,0.54999 0.8159485,1 1.0585937,1 0.2425323,0 0.4414063,-0.45001 0.4414063,-1 0,-0.55 -0.4761312,-1 -1.0585937,-1 z m 39.3964842,34.38086 c -0.0901,-0.002 -0.207896,0.0374 -0.349609,0.125 -0.543685,0.33603 -0.988281,1.0352 -0.988282,1.55273 0,1.43841 0.718032,1.12109 1.382813,-0.61133 0.256139,-0.66747 0.225363,-1.05961 -0.04492,-1.0664 z m 66.869137,79.82617 c -0.34584,-0.0235 -0.82124,0.0716 -1.45703,0.27344 -1.97937,0.62834 -5.277966,0.65626 -17.249998,0.14648 -2.038181,-0.0868 -2.999999,0.34711 -3,1.35156 10e-7,0.98294 1.737169,1.82086 5.181641,2.5 2.849537,0.56187 5.474551,1.32246 5.833985,1.68946 0.587674,0.60045 -7.063216,1.93337 -13.515626,2.35546 -1.374988,0.09 -3.287505,0.23452 -4.25,0.32032 -0.968877,0.0865 -1.75,0.96826 -1.75,1.97656 0,1.64689 0.59825,1.75029 6.25,1.07617 3.437481,-0.40996 9.62499,-0.62188 13.75,-0.4707 8.370328,0.30659 12.826458,-1.26828 9.333988,-3.29883 -2.47544,-1.43924 -0.15138,-1.41213 3.35156,0.0391 1.54832,0.64143 3.26446,1.23401 3.81445,1.31641 2.22554,0.33384 4.5,-1.6968 4.5,-4.01758 0,-2.08165 -0.50523,-2.4912 -3.25,-2.625 -1.78749,-0.0865 -4.0375,-0.0901 -5,-0.01 -1.00063,0.0839 -1.75,-0.54135 -1.75,-1.45898 0,-0.75569 -0.21656,-1.12485 -0.79297,-1.16406 z m 132.5586,50.79883 c 0.99704,-0.005 11.2704,5.20509 13.15234,6.66992 0.22904,0.17839 0.22904,0.50792 0,0.73242 -0.22919,0.22439 -2.44298,-0.74704 -4.91797,-2.1582 -2.47498,-1.41113 -5.62501,-3.16749 -7,-3.90235 -1.37507,-0.73485 -1.93022,-1.33877 -1.23437,-1.34179 z m 14.51562,7.56054 c 0.54191,-0.0308 1.80999,0.46823 3.27735,1.33399 5.06182,1.46273 9.04215,4.84004 12.9414,7.02539 3.29998,1.83934 7.47851,4.63337 9.28516,6.20898 4.57215,1.97472 7.70881,5.36445 11.2168,7.77149 6.54842,5.2597 12.91639,10.62503 17.4082,15.86523 3.82885,4.49027 0.91055,2.94579 -4.92383,-2.60547 -3.29219,-3.13243 -7.50617,-6.81462 -9.36328,-8.18164 -1.85715,-1.36702 -4.21963,-3.27188 -5.25,-4.23437 -2.71661,-2.16076 -5.86043,-3.88469 -8.16602,-5.57032 -2.86401,-2.10051 -7.22924,-4.91303 -9.70117,-6.25 -2.47192,-1.33697 -5.36823,-3.21719 -6.4375,-4.17968 -3.20275,-0.96411 -4.98584,-3.65711 -7.56836,-4.75 -1.64999,-0.68346 -3,-1.68311 -3,-2.22071 0,-0.1344 0.10062,-0.20263 0.28125,-0.21289 z m -226.398435,15.5625 c 0.177321,0.0773 0.140408,0.50481 -0.01758,1.32031 -0.20092,1.03692 -0.927738,2.07175 -1.615235,2.30079 -1.783744,0.59395 -1.546034,-1.25951 0.365235,-2.84571 0.698702,-0.57993 1.090257,-0.85265 1.267578,-0.77539 z m 4.466797,0.12891 c 0.489498,0.0238 1.104181,0.13566 1.898437,0.31445 3.344051,0.75281 8.194299,1.26521 12.962891,1.36914 2.794054,0.0609 7.126172,3.70285 6.195312,5.20899 -0.955687,1.54635 -21.826051,-0.10626 -23.457031,-1.85742 -0.406564,-0.43639 -0.338768,-1.84153 0.152344,-3.12305 0.484512,-1.2644 0.881199,-1.82198 1.798828,-1.90625 0.137645,-0.0126 0.286053,-0.0137 0.449219,-0.006 z m -14.4375,10.86719 c 0.302028,-0.0287 0.599652,0.0528 0.83789,0.29101 0.339251,0.33925 0.135609,1.09873 -0.453124,1.6875 -0.718186,0.7183 -1.277084,0.73577 -1.699219,0.0527 -0.532659,-0.86182 0.408367,-1.94528 1.314453,-2.03125 z m 26.08789,10.17773 c 0.184486,-0.0205 0.411109,0.0244 0.683594,0.12891 0.814148,0.31253 2.118419,0.56836 2.898438,0.56836 0.780019,0 1.417971,0.675 1.417968,1.5 0,0.82499 -0.637949,1.5 -1.417968,1.5 -0.780019,0 -2.017528,0.22932 -2.75,0.50976 -0.878022,0.33638 -1.382579,-0.36859 -1.480469,-2.06836 -0.08198,-1.42375 0.09498,-2.07704 0.648437,-2.13867 z m -19.75,7.76758 c 1.512492,-0.0386 2.75,0.37969 2.75,0.92969 10e-7,1.17369 -0.768611,1.17369 -3.5,0 -1.772216,-0.76154 -1.686846,-0.86733 0.75,-0.92969 z m -24.9394526,0.11328 c 0.6273638,-8.4e-4 0.6475777,0.25867 0.097656,0.80859 -0.7332285,0.73323 -0.047974,3.03984 2.2714844,7.64844 1.82672118,3.62948 3.2885512,7.5572 3.25,8.72852 -0.038665,1.17127 -0.4239101,3.03086 -0.8574219,4.13086 -0.6908219,1.75298 -0.87599997,1.6034 -1.49999998,-1.20899 -0.95187402,-4.29022 -5.00440952,-12.57466 -6.93359372,-14.17578 -0.852926,-0.70806 -2.0196398,-0.99748 -2.59375,-0.64258 -0.5740722,0.35482 -1.0449222,-0.0408 -1.0449222,-0.8789 0,-1.6289 3.2329604,-3.787 6.4785159,-4.32422 0.3454489,-0.0572 0.62291,-0.0857 0.8320313,-0.0859 z m 2.3574218,1.96094 c 1.36502875,0.0615 6.289479,6.59512 6.0761719,8.27734 -0.2803275,2.20902 -2.7441406,3.44177 -2.7441406,1.37305 0,-0.75458 -0.8926963,-3.12445 -1.984375,-5.26563 -1.0916787,-2.14133 -1.7978401,-4.07911 -1.5703125,-4.30664 0.056778,-0.0568 0.1316547,-0.0822 0.2226562,-0.0781 z M 226.05273,706.0625 c -0.17681,-0.0151 -0.30719,-0.009 -0.38281,0.0176 -0.60491,0.216 0.81291,0.977 3.15039,1.6914 2.33749,0.71441 4.25,1.75196 4.25,2.30664 0,0.5545 0.26184,0.74793 0.58008,0.42969 0.31839,-0.31838 2.90591,0.24818 5.75,1.25977 6.19544,2.2035 6.66992,2.2748 6.66992,0.98633 0,-0.55 -0.79644,-1 -1.77148,-1 -0.97504,0 -5.31784,-1.36489 -9.65039,-3.03321 -3.79095,-1.45974 -7.35799,-2.55273 -8.59571,-2.6582 z m 22.29883,3.99414 c -0.23097,0.0371 -0.25476,0.2766 -0.10547,0.72461 0.39667,1.18998 9.31942,4.41349 15.29493,5.52539 1.63332,0.30399 3.16996,0.75395 3.41601,1 0.69627,0.69623 1.11328,0.53013 1.11328,-0.44336 0,-0.48979 -3.71249,-1.88957 -8.25,-3.10937 -4.53747,-1.21992 -9.08909,-2.66128 -10.11523,-3.20508 -0.68351,-0.36233 -1.12255,-0.52926 -1.35352,-0.49219 z m -0.73242,2.97461 c -0.29596,0.038 -0.36136,0.1964 -0.0488,0.51367 0.55,0.5585 1.90001,1.23153 3,1.4961 1.1,0.26452 2.20362,0.53182 2.45117,0.5957 0.24749,0.0638 0.0225,-0.28328 -0.5,-0.77149 -1.05131,-0.98291 -4.01447,-1.94782 -4.90234,-1.83398 z m 23.10938,3.12109 c -0.42952,-0.0515 -0.88936,0.16474 -1.14844,0.58399 -0.34545,0.55899 0.0742,1.01758 0.93164,1.01758 1.75653,0 2.01595,-0.59988 0.6289,-1.45703 -0.12796,-0.0791 -0.26893,-0.12738 -0.4121,-0.14454 z"
       transform="scale(0.26458333)"
       sodipodi:nodetypes="cssssssssssssscccscccssssssssssscssssssssscccscccscscscscsssscccssssccsccccsscssssssssccscccsccssccssssssssscssscssscssssssssssssssssssssssscsscccsscscssscscccccsssccccccccscccccssssssssccssssccccssssccssscsscccccssssssssssssssccsccssccsssssssssccsccsscscsscssssssccsscccccccccssscsscssssssscccssccccsccsccsscssscssscccccccssccscscscssscccsccssscscssssscssssscsssssssccssscccccscscccccssssscccscscscccscssccssccsssssscccssccssccssccsssssssssssscssssssssssssssssccsscccsccssscssscccsssscccsccssssssssssssscscscssssssssssssscsscsssscccscsccsssssssscccccssssccccccsccsssccsscssccccssssscsscsssscsscsssscsssssssssssscssccssccsscccsssssscccccsscscsssscssscsssscscssssscsccsscscsscsssssssssssscccccssccsccssscsssssscssscsssssscssssssssssscsssssssssscssssssssssssssscsssssssssssssssscsssssss" />
    <path
       id="path21"
       d="m -2.1411708,92.764781 1.38886752,1.330997 3.41429948,-1.446737 0.115739,-1.620345 -2.25690985,0.405085 -2.25690985,0.520827 z"
       style="fill:none;stroke:#000000;stroke-width:0.264583px;stroke-linecap:butt;stroke-linejoin:miter;stroke-opacity:1" />
  </g>
</svg>
