<svg id="Calavera_Bandana" data-name="Calavera Bandana" xmlns="http://www.w3.org/2000/svg" viewBox="0 0 632.1 1119.13"><defs><style>.cls-1{fill:#e30d13;}</style></defs><g id="Calavera"><path id="selection_to_path" data-name="selection to path" d="M170.07,376.6c11.81-32.73-.9-90.58,2.78-126.85,3.83-21.78,19.79-43.67,31.72-65.53,7.87-21.82,19.72-50.93,48-58.46-7.88,21.82-11.92,21.86-19.83,40.06l-11.74,40c-7.92,18.2-20,25.57-23.85,43.72-7.83,25.44-3.17,87-2.88,116,.07,7.24.18,18.11-7.84,25.44-12,14.61-48.52,4.1-44.11,40.29,0,3.63.11,10.87,4.19,14.46,16.51,32.44,81.35,42.66,113.86,56.83,32.55,17.79,24.64,36,57.19,53.78,32.58,21.42,117.54,20.57,158,16.54,12.11-3.74,32.33-3.94,44.4-11.31,32.26-11.19,36-40.22,68.2-58.66,24.17-11.11,76.69-18.88,100.64-51.73,4-3.66,8-10.95,7.94-14.57,11.74-40-40.71-25-53.1-50.2-8.27-18,3.29-76.12,7.15-94.27L663,302.83l.33,32.61,4.4,36.19c44.43-7.69,39.92-54.75,43.64-87.4,7.22-87,6.68-141.37-62.79-209.52-40.82-35.83-93.7-64.29-150.41-71l-36.42.37L433.37.77,401,4.71c-52.56,4.15-89,4.51-133.26,26.7-32.22,14.81-52.27,33.13-76.29,58.73C131.38,148.71,120,221.29,132.86,297.26,137.2,326.2,145.61,358.72,170.07,376.6Zm132.43-110c56.6-4.19,97.42,31.63,77.7,82.56-15.86,32.76-52,58.49-92.4,66.14-36.38,4-52.78-17.59-53.07-46.58C234.26,321.61,242,281.67,302.5,266.58Zm226.56-2.27c48.55-.48,73.19,35.51,77.63,75.32.11,10.87,4.26,21.7,4.34,28.94-3.8,25.4-31.94,43.8-60.22,47.71-44.5.44-97.72-60.62-94-96.89C464.55,286.7,496.77,271.88,529.06,264.31ZM458.44,486l-44.57-6.8-36.31,11.23c-4.3-25.32,7.48-61.67,19.36-87.15,4-7.29,11.92-21.86,20-25.56,16.15-3.79,20.37,14.29,20.45,21.53C445.73,428.2,458.15,457.06,458.44,486Z" transform="translate(-82.26 10.28)"/><path id="selection_to_path_1" data-name="selection_to_path#1" d="M612.76,542.47c-12.1,3.75-28.28,3.91-40.35,11.28-40.2,25.76-19.36,87.15-55.37,127.37-16,18.27-52.35,25.88-80.67,26.17-52.59.52-117.36-2.46-142.11-49.31-20.55-32.41,7.45-65.3-37.46-104.71-8.12-3.54-20.37-14.29-28.46-14.2-12.14.12-8,14.57-7.88,21.81l4.77,72.42c.55,54.35,16.73,54.19,45.37,86.51C287,741.39,299.36,763,327.79,773.59c36.52,10.5,77,10.1,113.35,6.11,28.32-.28,44.54,3.18,72.72-11.59S590,694.88,597.81,665.82l3.54-50.77C609.08,578.74,613.2,586,612.76,542.47Z" transform="translate(-82.26 10.28)"/><path id="selection_to_path_8" data-name="selection_to_path#8" d="M326.63,657.65c.09,9.06,1.21,20.05,5.31,25.44s19.3,5.75,23.3,3.27c3.24-3-3.21-17.18-6.79-21.22S338.79,659.34,326.63,657.65Z" transform="translate(-82.26 10.28)"/><path id="selection_to_path_7" data-name="selection_to_path#7" d="M359,661,363.26,679c0,3.62,4.15,10.83,8.24,14.41,16.25,7.08,24-29.23,11.81-32.73C375.18,657.17,367.13,660.87,359,661Z" transform="translate(-82.26 10.28)"/><path id="selection_to_path_6" data-name="selection_to_path#6" d="M407.62,664.09c-12.07,7.37-12.28,20.85-7.66,27.6s14.07,6.76,20.12,4.89c4-1.85,10-11,10.43-19.13S425.81,662.1,407.62,664.09Z" transform="translate(-82.26 10.28)"/><path id="path784" d="M362.65,617.44c11,4.94,29-.61,29-.61l-.92-21.41c-4.19-14.45-16.36-18-24.38-10.63C362.39,592.08,362.57,610.19,362.65,617.44Z" transform="translate(-82.26 10.28)"/><path id="path785" d="M423,580.6c-4.05,0-16.74-1.73-20.75,1.94-7.83,7.17-11.29,31,.92,38.12,7.59,1.65,20.26,3.1,24.16-11.43l-.1-10.55S426.91,586.88,423,580.6Z" transform="translate(-82.26 10.28)"/><path id="path786" d="M464.59,696.13c3.7,1.4,8.05-3.7,12.06-7.36,28.07-25.65-31.06-45.38-20.3-7C456.35,681.72,460.35,695.55,464.59,696.13Z" transform="translate(-82.26 10.28)"/><path id="path787" d="M349.05,577.72c-4.06-1.23-11.08.11-15.12.15-31.35,13.08,8.7,61.51,20.52,28.78l-.11-10.87S351.89,579,349.05,577.72Z" transform="translate(-82.26 10.28)"/><path id="path788" d="M439.15,580.44s-6.5,36.76-3.64,39.89c5.31,2.48,21.63,1.68,27.59-2.17-.1-10.87.51-23.56-2-30.17S453.33,582.11,439.15,580.44Z" transform="translate(-82.26 10.28)"/><path id="path789" d="M477.81,575.8l-2.1,18.77c.11,10.87,3,31.95,19,20.92,2-1.83,7.25-23.44,4.91-33.25C495.43,577,487.82,576.56,477.81,575.8Z" transform="translate(-82.26 10.28)"/></g><g id="Bandana"><path id="path2593" class="cls-1" d="M229.82,1090.28c3-23.82,12.81-55.09,26.23-83.48,12.61-26.7,14.14-46.65,5.45-71.27-8.07-22.86-6.71-45.79,2.88-48.83,5.16-1.64,6.84-4.75,5.44-10.1-1.11-4.25,2.34-20.71,7.67-36.58,11.68-34.78,10.92-52.67-3.07-72.28-5.78-8.11-11.66-20.31-13.07-27.11-2.39-11.55-18.24-46.47-31.08-68.49-3.76-6.44-5.47-19.42-5.11-38.72.55-30.07-6.34-65.64-13.69-70.6-10.68-7.21-13.32-2.85-11.14,18.33,1.51,14.64.82,21.3-2.21,21.3-2.43,0-4.42-2.91-4.42-6.46,0-9.24-5.7-2.3-6.35,7.75-.31,4.61-5.17,24.94-10.81,45.17-15,53.92-24.89,100.74-25.73,122.32-.8,20.32,3.73,63,7.32,69.16,1.2,2,2.58,7.51,3.08,12.15s5.39,18.28,10.89,30.29,10,24.13,10,26.93,3.48,8.24,7.74,12.1,7.74,10,7.74,13.67A16.61,16.61,0,0,0,203,946.68c7,5.8,10.42,19.05,5.68,22-2.13,1.31-2.28,4.19-.35,6.78s3.8,29.57,4.34,60.22c.75,42.77,2.39,57.87,7,65,3.33,5.08,6.49,8.76,7,8.16S228.62,1099.86,229.82,1090.28ZM216,889c-7.11-23.22-18.53-77.25-18-85.18.35-5.32-1.19-17.24-3.42-26.48s-3.41-33.24-2.64-53.33c1.12-29.15,2.95-38.52,9.08-46.3l7.68-9.77,2.74,18.25c1.58,10.55,1.1,20.85-1.13,24.43s-2.54,9.78-.53,15.21c1.83,5,2.26,10.76.94,12.89s-.32,14.61,2.21,27.72c9,46.69,7.63,43.2,14.5,36.33,3.38-3.38,6.89-13.65,7.81-22.83,1.72-17.26,3.42-21.54,7.11-17.85,6.33,6.33-.64,70.14-10.48,95.94-4.47,11.71-9.46,24.77-11.1,29C218.42,893,217.36,893.46,216,889Zm-68.59,72.59a228.33,228.33,0,0,1,10.75-20.32c8.34-14,8.1-34.78-.73-63.89C142,826.46,134.58,751.27,142.88,729.42c8-21.11,13.12-40,13.88-51.44.45-6.74,2-14.08,3.32-16.3,4.81-7.79,9.71-68.27,6.26-77.34-2.56-6.74-6.42-9-15.38-9-6.58,0-15.16-1.7-19.05-3.79-8.92-4.77-17.32,4-14,14.6,1.27,4-.38,13.76-3.68,21.65s-5,15.9-3.85,17.81-.21,4.88-3.09,6.6C100.1,636.56,90,669.72,84.87,705.8c-8.32,58.71,3.68,125.68,29.86,166.6,7.22,11.29,12.82,21.8,12.45,23.37s1.37,10,3.86,18.65,4.92,24.8,5.4,35.81C137.37,971.65,141.21,975.62,147.39,961.54Zm-44-222.3c-4.77-4.77-2.51-34,4.91-63.23,9.86-38.92,14.92-51.26,20.25-49.48,4.42,1.48,7.76,37.86,3.48,37.86-3.24,0-13.21,23.57-14.74,34.85-.72,5.32-2.29,17.08-3.49,26.13C111.67,741.16,108.93,744.81,103.36,739.24Zm82.81-437c13.7-13.48,35.67-32.29,48.83-41.81,24.54-17.75,118.83-70.57,126-70.57,10.52,0,27.59-13.37,36.7-28.77,20.34-34.36,54-69.92,96.45-101.93,13.16-9.92,25.71-20.11,27.91-22.65s7.57-6,12-7.64c7.54-2.87,7.59-3.31.92-8.22-3.9-2.88-6-7.87-4.73-11.21,1.72-4.5-1.54-6.68-12.89-8.64C495-3,410.06-12.07,389.52-10c-47,4.83-55.82,7.26-75,14.08-13.2,4.7-39.17,12-55,22.12C241.75,37.69,225,47.73,225,49.42s-9.25,6-19.12,16.7-28.64,28-39.87,45.09c-10.6,16.11-16.53,27.59-29.65,53.52-9.19,18.16-15,42.44-16.7,52.33-5.4,31.45-9.46,81.18-2.63,111.83.19.82,10.21.67,22.27-.33C159.91,326.85,162.8,325.23,186.17,302.24Zm309.1-166.5C565,111.91,629.81,104.2,666.86,115.36l19,5.7-2.76-14.66c-1.51-8.07-4.5-15.75-6.63-17.07s-4.38-5.77-5-9.89-4.52-8.42-8.7-9.56S650.15,63.37,644,58C615.63,32.88,588.53,37.55,531,77.48c-40.35,28-88.4,72-78.6,72C453.82,149.51,473.12,143.32,495.27,135.74Z" transform="translate(-82.26 10.28)"/></g></svg>