<?xml version="1.0" encoding="UTF-8" standalone="no"?>
<!-- Created with Inkscape (http://www.inkscape.org/) -->

<svg
   version="1.1"
   id="svg120000"
   xml:space="preserve"
   width="1066.6667"
   height="1066.6667"
   viewBox="0 0 1066.6667 1066.6667"
   sodipodi:docname="stallion--horse-publicdomainvectors.org.svg"
   inkscape:version="1.1.2 (b8e25be833, 2022-02-05)"
   xmlns:inkscape="http://www.inkscape.org/namespaces/inkscape"
   xmlns:sodipodi="http://sodipodi.sourceforge.net/DTD/sodipodi-0.dtd"
   xmlns="http://www.w3.org/2000/svg"
   xmlns:svg="http://www.w3.org/2000/svg"><defs
     id="defs120004"><clipPath
       clipPathUnits="userSpaceOnUse"
       id="clipPath120014"><path
         d="M 0,800 H 800 V 0 H 0 Z"
         id="path120012" /></clipPath></defs><sodipodi:namedview
     id="namedview120002"
     pagecolor="#ffffff"
     bordercolor="#666666"
     borderopacity="1.0"
     inkscape:pageshadow="2"
     inkscape:pageopacity="0.0"
     inkscape:pagecheckerboard="0"
     showgrid="false"
     inkscape:zoom="0.77906244"
     inkscape:cx="533.33337"
     inkscape:cy="533.33337"
     inkscape:window-width="1920"
     inkscape:window-height="1018"
     inkscape:window-x="-8"
     inkscape:window-y="-8"
     inkscape:window-maximized="1"
     inkscape:current-layer="g120006" /><g
     id="g120006"
     inkscape:groupmode="layer"
     inkscape:label="stallion--horse-publicdomainvectors.org"
     transform="matrix(1.3333333,0,0,-1.3333333,0,1066.6667)"><g
       id="g120008"><g
         id="g120010"
         clip-path="url(#clipPath120014)"><path
           d="m 644.391,25.01 c -0.548,-1.002 -1.074,-2.016 -1.551,-3.055 -0.134,-0.705 -0.157,-1.43 -0.15,-2.154 l 47.352,-2.281 c -0.102,3.519 -0.241,7.043 -0.37,10.566 z"
           style="fill:#0054bd;fill-opacity:1;fill-rule:nonzero;stroke:none"
           id="path120016" /><path
           d="m 642.73,17.02 c 6.471,0.07 12.903,-0.909 19.382,-0.737 9.315,0 18.655,-0.14 27.946,0.721 -0.005,0.172 -0.011,0.344 -0.016,0.516 l -47.352,2.281 c 0.012,-0.926 0.076,-1.86 0.04,-2.781"
           style="fill:#0051c6;fill-opacity:1;fill-rule:nonzero;stroke:none"
           id="path120018" /><path
           d="m 689.397,47.008 -13.916,1.678 -17.66,-6.168 c -1.889,-2.08 -3.803,-4.139 -5.611,-6.289 -2.921,-3.502 -5.626,-7.217 -7.819,-11.219 l 45.281,3.076 c -0.231,6.307 -0.421,12.617 -0.275,18.922"
           style="fill:#0066c9;fill-opacity:1;fill-rule:nonzero;stroke:none"
           id="path120020" /><path
           d="m 689.397,47.008 c 0.083,3.615 0.276,7.228 0.637,10.836 -0.22,3.049 -1.552,5.885 -2.6,8.72 -0.377,1.364 -1.788,1.913 -2.744,2.79 -1.899,1.601 -3.736,3.277 -5.515,5.013 l -3.694,-25.681 z"
           style="fill:#0074ce;fill-opacity:1;fill-rule:nonzero;stroke:none"
           id="path120022" /><path
           d="m 606.318,403.748 c -0.214,-0.04 -0.429,-0.088 -0.644,-0.15 -4.216,-1.065 -8.508,-2.044 -12.896,-1.941 0.141,0.086 0.423,0.258 0.565,0.343 5.495,2.065 10.652,4.936 15.508,8.229 l 0.84,2.15 c -10.781,-2.732 -21.542,-5.557 -32.276,-8.459 -1.125,-1.764 -2.203,-3.564 -3.299,-5.354 l 14.559,-39.972 z"
           style="fill:#dae262;fill-opacity:1;fill-rule:nonzero;stroke:none"
           id="path120024" /><path
           d="m 675.481,48.686 3.694,25.681 c -2.105,2.051 -4.128,4.186 -6.064,6.393 -3.509,10.146 -8.46,19.719 -13.466,29.207 -0.713,1.543 -2.249,2.435 -3.314,3.699 -3.901,4.252 -7.373,8.914 -10.468,13.772 -0.76,6.55 -3.2,12.701 -6.135,18.572 l -31.582,-15.791 z"
           style="fill:#008ad9;fill-opacity:1;fill-rule:nonzero;stroke:none"
           id="path120026" /><path
           d="m 668.489,294.217 c -1.689,2.699 -4.17,4.846 -6.33,7.16 2.946,4.152 7.255,7.066 11.705,9.408 1.112,3.752 2.538,7.449 3.055,11.352 -3.078,6.064 -5.186,12.566 -7.787,18.842 2.711,1.136 5.735,0.736 8.587,0.845 2.389,5.682 4.778,11.362 7.552,16.852 0.713,1.238 1.238,2.719 2.539,3.465 -0.306,4.968 -2.484,9.388 -5.52,13.207 l -93.615,-16.754 z"
           style="fill:#74e0e0;fill-opacity:1;fill-rule:nonzero;stroke:none"
           id="path120028" /><path
           d="m 682.29,375.348 c -2.106,2.646 -4.624,5.006 -7.22,7.05 -4.207,2.875 -9.566,2.854 -14.469,2.915 0.007,3.644 -0.017,7.294 0.014,10.937 0.792,0.252 1.599,0.502 2.438,0.604 2.349,0.494 4.519,-1.192 6.893,-0.604 -2.89,3.385 -6.133,6.463 -9.517,9.338 -4.764,3.252 -10.006,6.269 -15.842,6.87 -4.458,0.37 -8.704,-1.683 -12.151,-4.346 -3.032,-2.405 -5.83,-5.227 -9.433,-6.792 -2.476,-1.129 -5.14,0.172 -7.584,0.751 -2.96,0.762 -6.002,2.249 -9.101,1.677 l -17.643,-45.154 z"
           style="fill:#afdf7b;fill-opacity:1;fill-rule:nonzero;stroke:none"
           id="path120030" /><path
           d="m 613.062,413.236 c -1.124,-0.283 -2.248,-0.572 -3.371,-0.857 l -0.84,-2.15 c 1.429,0.969 2.833,1.974 4.211,3.007"
           style="fill:#afdf7b;fill-opacity:1;fill-rule:nonzero;stroke:none"
           id="path120032" /><path
           d="m 653.4,198.369 c 2.265,-0.767 4.56,-1.965 7.004,-1.785 5.407,1.48 10.146,4.764 15.575,6.221 3.259,-3.057 6.307,-6.33 9.542,-9.418 1.473,2.523 0.392,5.705 -1.692,7.506 -3.134,2.742 -7.263,3.916 -11.234,4.857 -4.354,1.039 -8.829,1.371 -13.262,1.928 l -6.105,-9.239 c 0.058,-0.023 0.115,-0.046 0.172,-0.07"
           style="fill:#009be2;fill-opacity:1;fill-rule:nonzero;stroke:none"
           id="path120034" /><path
           d="m 639.728,146.01 c -0.783,1.562 -1.597,3.107 -2.427,4.633 -4.16,0.65 -7.795,3.07 -10.726,6.009 -0.182,0.196 -0.382,0.387 -0.579,0.578 l -17.85,-27.011 z"
           style="fill:#009be2;fill-opacity:1;fill-rule:nonzero;stroke:none"
           id="path120036" /><path
           d="m 606.975,278.68 c 0.077,-6.996 0.657,-14.133 3.117,-20.739 1.716,-2.443 4.935,-3.007 7.724,-3.179 3.212,-0.229 6.738,0.58 9.669,-1.145 2.271,-1.301 3.055,-4.197 2.67,-6.642 -0.994,-3.512 -4.597,-5.83 -4.848,-9.606 -1.145,-8.367 -1.128,-16.828 -1.301,-25.242 2.06,-1.348 4.324,-2.35 6.534,-3.447 7.496,-3.553 14.978,-7.176 22.688,-10.241 l 6.105,9.239 c -3.018,0.381 -6.016,0.865 -8.941,1.754 -3.792,1.144 -7.63,2.797 -10.294,5.83 -2.508,2.802 -3.377,6.884 -2.452,10.504 0.838,3.306 3.149,6.088 5.906,8.015 1.999,1.114 4.082,2.069 6.135,3.102 0.736,0.416 1.723,0.658 2.005,1.568 1.113,2.67 1.137,5.633 1.097,8.477 -0.109,3.57 -2.083,6.761 -4.466,9.291 -0.862,4.449 1.349,8.719 2.711,12.855 1.087,3.069 0.714,6.381 1.592,9.485 l -37.627,7.662 c -2.844,-2.315 -5.638,-4.776 -8.024,-7.541"
           style="fill:#14b4ec;fill-opacity:1;fill-rule:nonzero;stroke:none"
           id="path120038" /><path
           d="m 625.996,157.23 c -0.633,0.614 -1.262,1.247 -1.364,2.149 -1.589,7.043 -5.766,13.262 -10.967,18.166 -5.445,5.344 -12.222,8.955 -18.442,13.258 -7.459,5.107 -14.824,10.435 -21.287,16.781 -3.619,3.473 -6.584,7.541 -9.387,11.687 l 43.597,-89.052 z"
           style="fill:#14b4ec;fill-opacity:1;fill-rule:nonzero;stroke:none"
           id="path120040" /><path
           d="m 560.346,227.857 c -0.049,0.625 -0.017,1.26 0.131,1.913 4.176,21.669 8.374,43.339 12.55,65 l -50.47,10.279 z"
           style="fill:#14b4ec;fill-opacity:1;fill-rule:nonzero;stroke:none"
           id="path120042" /><path
           d="m 573.027,294.77 c 0.133,0.689 0.267,1.38 0.4,2.07 1.566,2.906 0.714,6.33 -0.157,9.322 -1.856,5.776 -5.116,10.961 -8.571,15.881 -2.576,3.633 -5.122,7.283 -7.618,10.965 l -34.524,-27.959 z"
           style="fill:#67d7ef;fill-opacity:1;fill-rule:nonzero;stroke:none"
           id="path120044" /><path
           d="m 586.231,356.613 c 4.022,-8.568 5.578,-18.285 11.06,-26.172 1.762,-2.476 4.293,-5.076 7.583,-4.951 1.708,-0.094 2.931,1.426 4.591,1.481 2.977,0.197 5.907,-0.58 8.696,-1.528 6.926,-2.484 13.1,-6.588 19.085,-10.797 -1.678,-6.085 -4.277,-12.392 -9.386,-16.404 -3.235,-2.601 -7.521,-3.299 -11.571,-3.049 -0.964,-2.755 -0.76,-5.701 -0.807,-8.576 -0.162,-0.131 -0.322,-0.263 -0.483,-0.396 l 37.627,-7.662 c 0.009,0.027 0.014,0.054 0.021,0.082 0.534,1.99 1.153,4.105 2.697,5.562 1.072,1.026 3.054,1.332 4.089,0.078 0.862,-1.025 2.342,-0.814 3.542,-0.658 2.076,0.283 4.073,1.488 5.013,3.416 0.924,1.897 1.269,4.09 1.081,6.174 -0.179,0.344 -0.376,0.678 -0.58,1.004 l -79.814,64.377 z"
           style="fill:#67d7ef;fill-opacity:1;fill-rule:nonzero;stroke:none"
           id="path120046" /><path
           d="m 608.146,130.219 -0.48,-5.573 c 0.203,-0.164 0.407,-0.326 0.609,-0.492 11.288,-8.976 22.123,-19.021 29.528,-31.549 1.998,-3.148 3.062,-6.753 4.489,-10.169 3.187,-8.084 6.463,-16.137 9.729,-24.192 2.602,-0.361 5.312,-0.299 7.843,-0.941 1.221,-1.817 2.295,-3.744 3.251,-5.733 0.329,-0.824 0.941,-1.881 0.157,-2.648 -1.707,-2.231 -3.566,-4.328 -5.451,-6.404 l 17.66,6.168 z"
           style="fill:#0074d4;fill-opacity:1;fill-rule:nonzero;stroke:none"
           id="path120048" /><path
           d="m 527.482,377.99 c -3.87,6.252 -7.627,12.59 -11.762,18.674 -1.474,1.998 -2.696,4.263 -4.616,5.854 -5.886,2.915 -11.783,5.817 -17.68,8.716 l -12.242,-18.568 z"
           style="fill:#dcf07c;fill-opacity:1;fill-rule:nonzero;stroke:none"
           id="path120050" /><path
           d="m 577.721,366.512 c 2.421,-0.604 4.135,-2.61 5.514,-4.561 0.453,-0.668 0.874,-1.347 1.277,-2.037 l 4.163,-1.32 -14.559,39.972 c -1.829,-2.984 -3.709,-5.935 -5.938,-8.63 -4.246,0.109 -8.366,1.363 -12.614,1.566 -1.182,0.189 -2.099,-0.736 -2.976,-1.379 -3.589,-2.93 -6.832,-6.258 -10.137,-9.502 1.316,-2.766 2.842,-5.527 3.594,-8.516 l 24.963,-7.912 c 1.732,1.758 4.252,2.789 6.713,2.319"
           style="fill:#dcf07c;fill-opacity:1;fill-rule:nonzero;stroke:none"
           id="path120052" /><path
           d="m 564.549,219.271 c -0.369,0.549 -0.737,1.098 -1.104,1.647 -1.306,2.127 -2.901,4.42 -3.099,6.939 l -37.789,77.192 -81.388,-112.422 c 4.555,-3.584 9.315,-6.916 14.14,-10.082 2.953,-1.717 5.414,-4.121 8.092,-6.205 7.474,-6.026 15.027,-11.94 22.594,-17.848 0.861,-0.658 1.676,-1.441 2.727,-1.847 7.582,-2.934 14.798,-6.752 21.949,-10.596 l 42.604,-6.92 c 1.987,6.041 4.389,11.953 7.022,17.734 5.852,-3.095 10.701,-7.724 15.872,-11.783 4.7,-2.805 9.355,-5.664 13.961,-8.601 2.322,-1.514 4.678,-2.981 7.016,-4.473 l 11,-1.787 z"
           style="fill:#31bded;fill-opacity:1;fill-rule:nonzero;stroke:none"
           id="path120054" /><path
           d="m 604.463,127.088 c 1.086,-0.787 2.155,-1.6 3.203,-2.442 l 0.48,5.573 z"
           style="fill:#0069d5;fill-opacity:1;fill-rule:nonzero;stroke:none"
           id="path120056" /><path
           d="m 475.247,16.752 c 10.31,-1.338 20.73,0.307 30.757,2.705 1.677,2.279 -0.164,5.139 -0.03,7.668 0.131,4.105 -0.549,8.518 1.379,12.324 0.798,1.701 2.647,2.571 4.472,2.516 0.212,-0.518 0.353,-1.067 0.431,-1.639 1.732,-0.117 3.518,0.268 4.826,1.457 2.789,2.344 4.622,5.563 6.362,8.697 2.182,4.098 4.045,8.344 5.757,12.655 L 474.706,16.828 c 0.18,-0.025 0.361,-0.053 0.541,-0.076"
           style="fill:#0069d5;fill-opacity:1;fill-rule:nonzero;stroke:none"
           id="path120058" /><path
           d="m 597.146,132.006 c 2.479,-1.584 4.937,-3.193 7.317,-4.918 l 3.683,3.131 z"
           style="fill:#0181dd;fill-opacity:1;fill-rule:nonzero;stroke:none"
           id="path120060" /><path
           d="m 510.94,145.902 c 1.958,-0.892 3.087,-2.828 4.278,-4.519 4.09,-6.52 5.233,-14.393 5.437,-21.953 0.579,-16.326 -5.375,-32.371 -14.681,-45.612 -8.235,-11.72 -19.869,-21.121 -33.344,-26.111 -1.042,-0.211 -1.457,-1.246 -1.99,-2.037 -4.466,-6.949 -8.368,-14.234 -12.112,-21.592 4.09,-4.568 10.268,-6.441 16.178,-7.25 l 54.495,46.307 c 1.368,3.445 2.639,6.931 3.895,10.418 4.889,10.129 10.522,19.906 15.041,30.224 1.035,1.803 0.267,3.801 -0.156,5.649 -0.297,3.713 0.235,7.428 0.768,11.086 0.958,6.34 2.53,12.543 4.526,18.617 l -42.604,6.92 z"
           style="fill:#0181dd;fill-opacity:1;fill-rule:nonzero;stroke:none"
           id="path120062" /><path
           d="m 329.606,767.235 c 0.053,2.446 0.24,4.885 0.706,7.29 -3.918,-3.918 -8.337,-7.341 -13.163,-10.09 -0.235,5.248 -1.316,10.403 -2.366,15.527 -4.779,-3.925 -9.495,-7.913 -14.259,-11.861 -1.553,-1.316 -3.139,-2.602 -4.7,-3.918 l 19.856,-1.575 z"
           style="fill:#e65100;fill-opacity:1;fill-rule:nonzero;stroke:none"
           id="path120064" /><path
           d="m 348.275,782.25 c -0.196,1.057 -0.055,2.146 -0.103,3.212 -0.375,2.288 2.015,3.565 3.66,4.591 -1.543,-0.118 -3.244,0.352 -4.662,-0.455 -1.488,-0.783 -2.961,-1.802 -3.792,-3.306 -0.548,-1.042 -0.971,-2.405 -0.187,-3.447 1.816,-3.125 3.822,-6.141 5.824,-9.162 l 4.631,1.538 c -1.759,2.369 -3.58,4.694 -5.371,7.029"
           style="fill:#e65100;fill-opacity:1;fill-rule:nonzero;stroke:none"
           id="path120066" /><path
           d="m 412.479,230.012 c 1.863,-6.907 5.489,-13.364 9.886,-18.975 5.442,-6.943 11.884,-12.969 18.804,-18.41 l 81.388,112.422 z"
           style="fill:#8bebdb;fill-opacity:1;fill-rule:nonzero;stroke:none"
           id="path120068" /><path
           d="m 584.512,359.914 c 0.625,-1.076 1.194,-2.18 1.719,-3.301 l 2.444,1.981 z"
           style="fill:#b7f3bb;fill-opacity:1;fill-rule:nonzero;stroke:none"
           id="path120070" /><path
           d="m 522.557,305.049 34.524,27.959 c -2.284,3.369 -4.528,6.765 -6.71,10.203 -0.321,1.81 -0.04,3.715 -0.134,5.562 2.617,0.041 5.234,-0.093 7.835,0.063 2.491,0.15 4.802,1.49 6.346,3.418 2.797,3.25 3.134,7.848 5.883,11.123 0.217,0.287 0.455,0.559 0.707,0.816 l -24.963,7.912 c 0.09,-0.355 0.171,-0.712 0.236,-1.074 0.383,-1.824 -1.074,-3.431 -2.765,-3.845 -2.32,-0.582 -5.031,-0.981 -7.146,0.453 -3.432,2.24 -5.812,5.703 -8.077,9.041 -0.272,0.435 -0.541,0.875 -0.811,1.31 l -46.3,14.676 z"
           style="fill:#b7f3bb;fill-opacity:1;fill-rule:nonzero;stroke:none"
           id="path120072" /><path
           d="m 454.939,657.323 c 2.352,0.226 4.796,1.277 6.072,3.368 1.718,2.696 1.348,6.026 1.654,9.065 0.65,6.15 1.825,12.449 5.186,17.761 -1.566,-0.039 -3.149,0.125 -4.701,-0.063 -2.875,-2.766 -2.241,-7.012 -2.288,-10.608 0.126,-3.079 -1.096,-6.392 -3.884,-7.991 -2.398,1.769 -3.983,4.263 -4.955,7.016 l 2.267,-18.598 c 0.218,0.015 0.435,0.03 0.649,0.05"
           style="fill:#ef3500;fill-opacity:1;fill-rule:nonzero;stroke:none"
           id="path120074" /><path
           d="m 493.424,411.234 c -4.488,2.207 -8.979,4.413 -13.467,6.619 l 1.225,-25.187 z"
           style="fill:#f2da4a;fill-opacity:1;fill-rule:nonzero;stroke:none"
           id="path120076" /><path
           d="m 421.373,606.275 c 0.244,1.101 0.72,2.162 0.662,3.313 0,2.656 0,5.32 -0.008,7.976 -2.773,0.869 -5.397,2.217 -7.716,3.963 3.275,2.39 6.627,4.647 9.997,6.911 0.016,5.28 0.016,10.552 0.008,15.832 0.102,1.333 -1.066,2.234 -1.998,2.97 -2.907,2.068 -6.299,3.299 -9.614,4.552 0.988,4.027 1.983,8.069 2.939,12.111 0.399,1.818 1.144,3.628 2.538,4.905 2.28,2.186 5.507,2.813 8.523,3.213 -0.03,4.903 -0.008,9.808 -0.014,14.712 2.082,-0.063 4.199,0.094 6.188,0.768 2.021,-6.048 3.809,-12.167 5.375,-18.341 0.83,-3.25 2.31,-6.447 4.897,-8.656 3.006,-2.681 7.202,-3.481 11.14,-3.231 l -2.267,18.598 c -0.817,2.319 -1.201,4.822 -1.252,7.234 -0.265,8.751 -2.968,17.26 -6.846,25.055 -0.768,1.559 -2.365,2.515 -3.956,3.071 -3.251,1.16 -6.761,1.081 -10.161,1.168 -4.161,-0.024 -8.321,0.054 -12.473,-0.04 -3.109,-5.742 -5.296,-11.963 -6.737,-18.324 -0.744,-2.899 -1.081,-6.315 -3.494,-8.384 -1.239,-0.814 -2.79,-0.226 -3.997,0.345 -3.188,1.537 -6.157,3.479 -9.086,5.445 0.688,1.418 1.55,2.829 2.882,3.737 1.535,1.215 3.792,1.254 5.03,2.868 1.16,1.489 1.583,3.525 1.339,5.367 -1.966,4.261 -4.943,7.983 -6.964,12.221 -1.285,2.358 -0.565,5.226 0.439,7.56 1.989,4.309 6.298,6.831 10.49,8.642 -0.94,3.251 -1.63,6.557 -2.249,9.878 0.596,1.207 1.943,1.936 3.055,2.641 2.602,-1.59 4.827,-3.69 7.113,-5.687 3.644,-3.252 7.169,-6.637 10.734,-9.966 0,2.852 0.008,5.711 0,8.563 -3.753,4.332 -8.061,8.124 -12.394,11.861 -0.705,0.596 -1.393,1.262 -2.279,1.582 -2.832,1.09 -5.777,1.935 -8.775,2.409 l -79.054,-115.04 z"
           style="fill:#fb6100;fill-opacity:1;fill-rule:nonzero;stroke:none"
           id="path120078" /><path
           d="m 458.591,596.184 c -1.92,3.713 -6.096,6.502 -10.357,5.695 -2.1,-0.628 -4.127,-1.454 -6.131,-2.331 l 17.58,-5.707 c -0.328,0.797 -0.689,1.58 -1.092,2.343"
           style="fill:#fb6100;fill-opacity:1;fill-rule:nonzero;stroke:none"
           id="path120080" /><path
           d="m 356.245,351.697 166.312,-46.648 -41.375,87.617 z"
           style="fill:#d8f890;fill-opacity:1;fill-rule:nonzero;stroke:none"
           id="path120082" /><path
           d="m 356.245,351.697 12.651,-32.625 c 6.328,-3.224 12.682,-6.39 19.014,-9.595 6.376,-3.174 12.409,-7.35 16.795,-13.022 4.138,-5.279 6.37,-11.947 6.41,-18.644 0.031,-12.395 0,-24.788 0.015,-37.182 -0.072,-3.617 0.42,-7.174 1.349,-10.617 l 110.078,75.037 z"
           style="fill:#c5f5c1;fill-opacity:1;fill-rule:nonzero;stroke:none"
           id="path120084" /><path
           d="m 323.388,638.077 79.054,115.04 c -1.723,0.274 -3.463,0.425 -5.21,0.428 -1.394,0.015 -2.75,-0.611 -3.65,-1.669 -3.479,-3.846 -2.602,-9.793 -6.033,-13.679 -1.419,-1.708 -4.325,-2.452 -6.143,-0.979 -0.719,0.015 -1.441,0.032 -2.154,0.039 -0.016,5.076 0.572,10.342 -1.144,15.229 -1.378,4.114 -3.847,7.749 -6.534,11.118 -3.658,0.148 -7.309,0.455 -10.944,0.839 -2.005,3.8 -4.429,7.336 -6.984,10.778 l -4.631,-1.538 c 0.501,-0.758 1.004,-1.516 1.501,-2.276 -5.007,-4.881 -10.287,-9.464 -15.599,-14 -1.535,-0.008 -3.07,-0.016 -4.605,0.016 -0.323,1.543 -0.613,3.087 -0.659,4.654 -0.055,1.717 -0.083,3.439 -0.047,5.158 l -13.926,-4.627 z"
           style="fill:#f55a00;fill-opacity:1;fill-rule:nonzero;stroke:none"
           id="path120086" /><path
           d="m 356.245,351.697 80.343,106.305 c 0.236,1.439 0.53,2.868 0.866,4.276 0.267,1.442 1.214,2.86 0.674,4.348 -0.589,2.946 -2.147,5.727 -4.575,7.537 -3.527,2.609 -7.083,5.187 -10.734,7.631 -3.509,2.225 -6.972,4.787 -11.007,5.977 -2.868,0.149 -5.476,-1.465 -8.11,-2.429 -2.882,-1.064 -6.024,-2.999 -9.15,-1.645 -3.603,1.482 -5.451,5.21 -6.917,8.579 -1.323,3.314 -2.985,6.682 -2.884,10.327 0.056,2.349 -0.257,4.81 0.713,7.019 2.954,-1.497 5.375,-3.989 6.801,-6.981 0.831,-1.833 2.154,-3.494 4.019,-4.356 2.326,-1.073 5.038,-1.379 7.544,-0.846 3.354,0.893 5.547,3.776 7.507,6.433 1.73,2.185 4.136,4.692 7.223,4.049 5.052,-0.869 9.002,-4.481 12.832,-7.63 -1.543,4.215 -4.858,7.426 -7.881,10.623 -1.395,1.23 -2.696,2.922 -4.591,3.306 -3.51,-0.298 -6.158,-3.118 -9.574,-3.768 -2.061,-0.29 -4.012,0.776 -5.578,2.005 -3.408,2.844 -5.735,6.722 -7.866,10.553 -0.169,0.258 -0.241,0.535 -0.262,0.821 l -82.797,14.865 z"
           style="fill:#ffd100;fill-opacity:1;fill-rule:nonzero;stroke:none"
           id="path120088" /><path
           d="m 481.182,392.666 -1.225,25.187 c -5.395,2.652 -10.791,5.307 -16.18,7.972 -6.581,3.111 -13.209,6.166 -19.601,9.66 -4.098,2.256 -7.059,6.408 -7.787,11.03 -0.626,3.803 -0.424,7.683 0.199,11.487 L 356.245,351.697 Z"
           style="fill:#f9ed2d;fill-opacity:1;fill-rule:nonzero;stroke:none"
           id="path120090" /><path
           d="m 459.232,589.759 c 1.051,-3.055 1.819,-6.205 3.049,-9.197 -0.123,3.98 -0.709,8.032 -2.035,11.809 l -1.981,-0.721 c 0.38,-0.611 0.703,-1.255 0.967,-1.891"
           style="fill:#fd9d00;fill-opacity:1;fill-rule:nonzero;stroke:none"
           id="path120092" /><path
           d="m 395.638,523.831 c -0.037,0.521 0.109,1.067 0.215,1.569 0.916,3.565 3.142,6.612 4.089,10.154 0.455,1.653 0.298,3.376 0.283,5.069 -0.862,0.908 -0.94,2.209 -0.087,3.164 2.029,-0.619 4.192,-1.089 6.307,-0.564 1.708,0.243 3.228,1.348 4.992,1.316 2.231,-0.368 4.042,-1.864 6.015,-2.867 1.223,-0.619 2.711,-1.339 4.075,-0.705 3.016,1.598 4.866,4.716 7.873,6.346 0.533,0.25 1.205,0.571 1.739,0.125 1.16,-0.987 1.81,-2.429 2.491,-3.776 1.834,-3.949 3.291,-8.07 4.639,-12.206 0.234,1.723 0.579,3.447 1.151,5.092 0.893,2.97 2.547,5.97 1.817,9.151 -0.68,3.149 -2.999,5.656 -5.553,7.458 -2.789,1.966 -5.837,3.745 -9.214,4.403 -4.622,0.956 -8.823,-2.092 -13.381,-2.108 -2.092,0.04 -4.309,0.784 -5.594,2.523 -1.528,2.061 -1.888,4.772 -1.731,7.263 0.807,3.117 2.607,5.826 3.943,8.731 l -96.866,-35.273 z"
           style="fill:#fd9d00;fill-opacity:1;fill-rule:nonzero;stroke:none"
           id="path120094" /><path
           d="m 424.621,576.567 c 4.825,1.111 9.566,2.694 14.54,3.055 0.029,2.016 0.638,3.897 1.566,5.641 l -20.567,-7.489 c 1.359,-0.712 2.844,-1.715 4.461,-1.207"
           style="fill:#fd9d00;fill-opacity:1;fill-rule:nonzero;stroke:none"
           id="path120096" /><path
           d="m 312.841,538.696 96.866,35.273 c 0.286,0.62 0.552,1.248 0.78,1.892 0.925,2.413 1.348,4.975 1.474,7.545 2.616,-2.022 5.319,-3.956 8.187,-5.626 0.003,-0.002 0.008,-0.004 0.012,-0.006 l 20.567,7.489 c 1.123,2.11 2.712,4.02 4.327,5.718 2.239,2.288 5.248,4.278 8.586,4.051 2.05,-0.248 3.567,-1.684 4.625,-3.382 l 1.981,0.721 c -0.174,0.496 -0.362,0.985 -0.563,1.47 l -17.58,5.707 c -3.53,-1.545 -6.997,-3.255 -10.698,-4.344 -3.062,-0.322 -6.689,0.118 -8.837,2.578 -1.692,2.013 -1.276,4.778 -1.332,7.207 -0.017,0.44 0.043,0.866 0.137,1.286 l -97.985,31.802 z"
           style="fill:#ff9300;fill-opacity:1;fill-rule:nonzero;stroke:none"
           id="path120098" /><path
           d="m 353.613,327.078 c 5.058,-2.74 10.16,-5.394 15.283,-8.006 l -12.651,32.625 z"
           style="fill:#cbf387;fill-opacity:1;fill-rule:nonzero;stroke:none"
           id="path120100" /><path
           d="M 312.841,538.696 243.204,428.362 c 3.2,-6.558 7.083,-12.791 11.42,-18.653 6.196,-8.421 13.302,-16.146 20.878,-23.338 3.854,-3.541 7.63,-7.215 11.893,-10.279 3.568,-2.678 7.132,-5.363 10.695,-8.049 l 58.155,-16.346 z"
           style="fill:#ffce00;fill-opacity:1;fill-rule:nonzero;stroke:none"
           id="path120102" /><path
           d="m 298.09,368.043 c 14.539,-10.961 29.036,-21.98 43.471,-33.072 2.71,-2.03 5.289,-4.287 8.32,-5.854 1.24,-0.687 2.486,-1.363 3.732,-2.039 l 2.632,24.619 z"
           style="fill:#f6e63a;fill-opacity:1;fill-rule:nonzero;stroke:none"
           id="path120104" /><path
           d="M 315.68,762.608 201.604,625.398 c 0.162,-0.008 0.322,-0.016 0.482,-0.024 3.643,-0.094 7.31,0 10.882,0.815 4.74,0.988 9.244,2.938 13.381,5.437 3.416,2.068 6.455,4.669 9.855,6.746 4.716,2.907 9.942,5.538 15.606,5.625 4.78,-0.51 8.939,-3.659 13.782,-3.847 7.418,1.003 14.681,2.969 21.974,4.622 -1.853,-3.888 -3.673,-7.791 -5.47,-11.704 l 41.292,5.009 z"
           style="fill:#fb6800;fill-opacity:1;fill-rule:nonzero;stroke:none"
           id="path120106" /><path
           d="m 187.043,435.869 c -0.231,0.066 -0.462,0.132 -0.694,0.198 l 4.091,-5.717 c 0.053,2.297 -1.115,4.759 -3.397,5.519"
           style="fill:#feb200;fill-opacity:1;fill-rule:nonzero;stroke:none"
           id="path120108" /><path
           d="m 143.69,495.699 29.928,-41.834 c 0.18,0.218 0.361,0.437 0.538,0.657 0,5.586 -0.071,11.172 0.282,16.75 0.375,4.764 0.737,9.519 1.238,14.267 3.478,2.232 7.756,1.363 11.642,1.52 13.209,-13.977 26.417,-27.953 39.626,-41.938 3.377,-0.039 6.754,-0.313 10.106,-0.783 1.559,-5.509 3.647,-10.842 6.154,-15.976 l 69.637,110.334 z"
           style="fill:#feb200;fill-opacity:1;fill-rule:nonzero;stroke:none"
           id="path120110" /><path
           d="m 295.824,764.183 c -2.297,-1.938 -4.533,-3.943 -6.503,-6.219 -2.616,-2.954 -4.927,-6.323 -5.946,-10.177 -0.666,-2.421 -0.415,-4.96 -0.47,-7.435 -4.12,-1.395 -8.226,-2.829 -12.324,-4.294 -1.488,-0.533 -3.039,-0.971 -4.394,-1.81 -5.86,-3.439 -11.415,-7.372 -16.915,-11.352 -0.814,-0.54 -1.049,-1.543 -1.52,-2.35 -1.786,-3.369 -4.073,-6.44 -6.408,-9.447 -1.16,-1.411 -2.194,-2.947 -3.619,-4.122 -11.971,-10.013 -24.28,-19.617 -36.65,-29.144 -1.019,-0.759 -2.366,-0.705 -3.525,-1.097 -1.301,-0.362 -2.576,-0.797 -3.828,-1.288 l 5.669,-49.933 c 0.738,-0.042 1.477,-0.079 2.213,-0.117 l 114.076,137.21 z"
           style="fill:#f35c00;fill-opacity:1;fill-rule:nonzero;stroke:none"
           id="path120112" /><path
           d="m 323.388,638.077 -41.292,-5.009 c -2.23,-4.855 -4.42,-9.726 -6.563,-14.619 -1.206,-2.679 -2.225,-5.445 -3.651,-8.023 -4.184,-7.975 -9.675,-15.261 -16.162,-21.513 -1.487,-1.463 -3.063,-2.825 -4.672,-4.149 l 61.793,-46.068 z"
           style="fill:#ff8500;fill-opacity:1;fill-rule:nonzero;stroke:none"
           id="path120114" /><path
           d="m 312.841,538.696 -61.793,46.068 c -1.519,-1.249 -3.067,-2.464 -4.596,-3.693 -2.382,-5.601 -5.281,-10.992 -8.548,-16.123 -4.332,-3.305 -9.048,-6.174 -13.287,-9.613 -1.982,-5.1 -3.8,-10.42 -3.893,-15.943 -0.11,-2.139 0.892,-4.144 0.807,-6.275 -0.063,-2.789 0.195,-5.625 -0.541,-8.344 -0.564,-2.436 -1.802,-4.669 -3.353,-6.628 -5.617,0.799 -11.062,2.484 -16.46,4.199 -1.026,0.29 -1.99,0.745 -2.829,1.403 -6.11,4.52 -12.009,9.323 -17.995,14.007 -4.364,3.307 -8.657,6.801 -13.545,9.3 -0.146,0.091 -0.296,0.164 -0.446,0.231 L 143.69,495.699 Z"
           style="fill:#fe9400;fill-opacity:1;fill-rule:nonzero;stroke:none"
           id="path120116" /><path
           d="m 180.063,667.68 c -0.674,-0.4 -0.861,-1.206 -1.175,-1.864 -1.332,-3.275 -2.734,-6.534 -3.698,-9.95 -0.61,-2.053 -0.148,-4.231 0.424,-6.253 1.546,-5.22 5.736,-9.187 7.588,-14.243 l 12.87,-9.614 c 1.104,-0.105 2.211,-0.179 3.319,-0.241 l -5.669,49.933 c -4.884,-1.913 -9.407,-4.713 -13.659,-7.768"
           style="fill:#f04f00;fill-opacity:1;fill-rule:nonzero;stroke:none"
           id="path120118" /><path
           d="m 183.878,632.927 c 0.431,-1.254 -0.102,-2.939 1.122,-3.808 1.206,-1.089 2.772,-1.677 4.292,-2.155 2.215,-0.648 4.49,-0.992 6.78,-1.208 l -12.87,9.614 c 0.287,-0.786 0.521,-1.597 0.676,-2.443"
           style="fill:#f64e00;fill-opacity:1;fill-rule:nonzero;stroke:none"
           id="path120120" /><path
           d="m 126.613,471.085 c 0.569,-2.074 1.406,-4.08 2.291,-6.034 3.275,-6.94 7.491,-13.373 11.831,-19.672 4.442,-6.354 9.073,-12.573 13.968,-18.59 5.226,-6.299 10.702,-12.489 17.213,-17.487 3.792,-2.851 8.179,-5.469 13.084,-5.397 1.347,4.834 2.263,9.785 3.32,14.689 0.722,3.682 1.536,7.34 2.069,11.055 0.031,0.23 0.046,0.464 0.051,0.701 l -4.091,5.717 c -2.715,0.779 -5.425,1.6 -8.001,2.755 -3.244,1.489 -6.715,3.369 -8.321,6.729 -0.407,1.114 -0.948,2.5 -0.148,3.558 1.112,1.683 2.453,3.202 3.739,4.756 l -29.928,41.834 z"
           style="fill:#ffa300;fill-opacity:1;fill-rule:nonzero;stroke:none"
           id="path120122" /><path
           d="m 166.362,547.285 c -1.669,0.741 -3.558,0.128 -5.211,-0.41 -5.985,-2.108 -11.689,-4.937 -17.353,-7.773 -1.618,-12.086 -3.744,-24.128 -6.761,-35.946 l 6.653,-7.457 z"
           style="fill:#fd7700;fill-opacity:1;fill-rule:nonzero;stroke:none"
           id="path120124" /><path
           d="m 134.656,494.761 c -2.114,-5.656 -5.314,-10.828 -7.74,-16.351 -0.503,-1.2 -1.145,-2.446 -0.964,-3.8 0.109,-1.199 0.345,-2.372 0.661,-3.525 l 17.077,24.614 z"
           style="fill:#ff8800;fill-opacity:1;fill-rule:nonzero;stroke:none"
           id="path120126" /><path
           d="m 137.037,503.156 c -0.622,-2.437 -1.28,-4.866 -1.982,-7.284 -0.128,-0.372 -0.261,-0.743 -0.399,-1.111 l 9.034,0.938 z"
           style="fill:#fd7400;fill-opacity:1;fill-rule:nonzero;stroke:none"
           id="path120128" /></g></g></g></svg>
